<svg width="182" height="24" viewBox="0 0 182 24" fill="none" xmlns="http://www.w3.org/2000/svg">
<path d="M8.62614 10.9346C9.65251 11.2892 10.4941 11.5962 11.1497 11.8499C11.8053 12.1051 12.4875 12.4338 13.1876 12.8328C13.8914 13.2318 14.4401 13.6498 14.8437 14.0816C15.2446 14.5133 15.5777 15.0413 15.8483 15.6659C16.1152 16.2868 16.2598 16.9886 16.2815 17.7639C16.326 19.8286 15.6916 21.3886 14.3771 22.4297C13.0621 23.4755 11.29 23.9961 9.05936 23.9961C6.67298 23.9961 4.66843 23.4861 3.0415 22.4625C2.59663 22.1966 2.10463 22.0566 1.57027 22.0444C1.03696 22.0339 0.544428 22.1628 0.0990336 22.4286H0V18.1956H0.133988L0.167351 18.2284C1.172 19.585 2.23915 20.6625 3.37621 21.46C5.02539 22.5718 6.88535 23.1257 8.96085 23.1257C10.6545 23.1257 12.0251 22.6823 13.0737 21.7934C14.1229 20.9024 14.5778 19.7504 14.4454 18.3288C14.3347 17.1504 13.8305 16.2192 12.9413 15.528C12.049 14.8415 10.3214 14.0403 7.7576 13.1266C7.09083 12.9057 6.55329 12.7171 6.15291 12.5617C5.752 12.4063 5.24835 12.1881 4.64778 11.9106C4.04721 11.6343 3.56157 11.3795 3.19138 11.1433C2.82436 10.9108 2.42081 10.6143 1.98759 10.2597C1.55385 9.90512 1.21649 9.53942 0.982938 9.1584C0.749383 8.78108 0.549726 8.34668 0.382372 7.85839C0.215018 7.36956 0.130279 6.83528 0.130279 6.25979C0.130279 5.57226 0.253147 4.91062 0.497293 4.27541C0.741969 3.64284 1.12752 3.04092 1.64971 2.47546C2.17189 1.91054 2.9091 1.45289 3.85814 1.10886C4.80719 0.76483 5.91459 0.591492 7.1851 0.591492C8.16698 0.591492 9.33422 0.791264 10.6948 1.19025C11.7211 1.50046 12.6882 1.43439 13.6039 0.990484L14.0704 0.758491H14.1705V4.79173H14.0704L13.9709 4.69132C13.6589 4.33672 13.3364 4.0265 13.0001 3.75804C12.3778 3.20368 11.7174 2.74603 11.0289 2.39091C10.9183 2.34652 10.8404 2.31375 10.7959 2.29103C9.63609 1.73667 8.3873 1.45607 7.04952 1.45607C5.64555 1.45607 4.437 1.83974 3.42175 2.60495C2.40651 3.37281 1.89809 4.4107 1.89809 5.72288C1.89809 6.09861 1.94258 6.44581 2.03208 6.75655C2.12105 7.06675 2.27305 7.36215 2.48383 7.63907C2.69514 7.91545 2.89533 8.15961 3.08387 8.37046C3.27294 8.58132 3.56951 8.79905 3.96989 9.02048C4.3708 9.24296 4.69968 9.42052 4.95601 9.55263C5.21127 9.68581 5.60106 9.85175 6.12643 10.052C6.64862 10.2513 7.04529 10.3945 7.31221 10.4827C7.57965 10.5726 8.01287 10.7153 8.61661 10.9166L8.62721 10.9303L8.62614 10.9346Z" fill="#62322D"/>
<path d="M42.4003 0.934991L41.4295 2.46755V22.3996L42.4003 23.9321V23.9987H38.1873V23.9321L39.1919 22.3657V13.6007H22.8389V22.3657L23.8097 23.9321V23.9987H19.5967V23.9321L20.6008 22.3657V2.46755L19.5967 0.934991V0.835114H23.8097V0.934991L22.8389 2.46755V12.7002H39.1872V2.46755L38.183 0.934991V0.835114H42.396V0.934991H42.4003Z" fill="#62322D"/>
<path d="M94.3252 22.3667L95.3298 23.8987V23.9653H91.1169V23.8987L92.0871 22.3667V3.50109L82.8275 20.599L82.1931 21.8002L82.1608 21.8657L81.6937 22.7334L81.1932 21.8002L81.0931 21.6004L71.1631 3.26803V22.4988L72.1005 23.9315V23.998H69.292V23.9315L70.2294 22.465V2.33266L69.292 0.866179V0.800121H71.9342L72.0343 1.03211L72.1677 1.29793L82.165 19.764L92.1623 1.3978L92.4287 0.932237L92.4944 0.799057H95.3373V0.898934L94.3331 2.43147V22.364H94.3252V22.3667Z" fill="#62322D"/>
<path d="M142.635 0.867068V0.80101H145.41V0.867068L144.506 2.30026V23.9651H143.668C143.558 23.5873 143.403 23.1634 143.202 22.6979C143.002 22.2323 142.649 21.5812 142.15 20.7473C141.65 19.9134 141.067 19.0964 140.411 18.2984C139.752 17.4962 138.862 16.6137 137.737 15.6503C136.609 14.6827 135.368 13.7885 134.009 12.9673C129.261 10.1907 125.96 7.36821 124.111 4.50183V22.5018L125.049 23.9345V24H122.24V23.9345L123.178 22.5018V2.30344L122.24 0.870245V0.804187H124.381C125.026 2.24795 126.164 3.80056 127.791 5.45412C129.417 7.10874 131.615 8.77181 134.38 10.4381C138.926 13.1929 141.991 16.0709 143.573 19.071V6.80329H143.54V2.30344L142.636 0.870245V0.867068H142.635Z" fill="#62322D"/>
<path d="M181.989 18.8976C181.923 19.0086 181.855 19.1375 181.79 19.2818C181.723 19.4266 181.548 19.6882 181.27 20.065C180.992 20.4412 180.685 20.799 180.351 21.1325C180.018 21.4644 179.559 21.838 178.981 22.2475C178.404 22.6582 177.777 23.0202 177.11 23.3304C176.105 23.7737 174.924 23.9952 173.568 23.9952C172.742 23.9952 171.785 23.8403 170.692 23.5301C170.47 23.4635 170.259 23.3959 170.059 23.3304C169.458 23.1311 168.888 22.8754 168.354 22.562C167.998 22.3622 167.628 22.1302 167.25 21.8602C167.071 21.7275 166.772 21.4839 166.345 21.1262C166.034 20.8598 165.43 20.2875 164.54 19.4076C163.647 18.5293 163.148 18.0373 163.036 17.9226C162.992 17.9009 162.825 17.7598 162.536 17.5051C162.247 17.2499 162.024 17.0644 161.868 16.955C161.868 16.9328 161.857 16.9217 161.835 16.9217C160.475 15.7649 158.827 15.1894 156.889 15.1894H152.475V21.6203L153.446 23.1528V23.2532H149.233V23.1528L150.238 21.6203V1.68823L149.233 0.155692V0.0896346H160.435C161.862 0.0896346 163.176 0.4215 164.381 1.09053C165.742 1.84782 166.723 2.76788 167.323 3.85651C167.946 5.01279 168.271 6.26895 168.294 7.62445C168.273 9.00216 167.95 10.2689 167.323 11.4246C166.723 12.5154 165.742 13.4349 164.381 14.1906C163.555 14.6562 162.655 14.9595 161.672 15.0922C161.96 15.2264 162.204 15.3352 162.409 15.4251C163.077 15.7575 163.959 16.3478 165.05 17.1907C165.719 17.7228 166.367 18.2698 166.989 18.8231C167.211 19.0223 167.345 19.1545 167.39 19.2221C168.1 19.9133 168.895 20.5559 169.764 21.1536C169.809 21.1758 169.865 21.2096 169.931 21.254C169.998 21.2984 170.043 21.3196 170.065 21.3196C170.31 21.4971 170.698 21.708 171.236 21.9511C172.24 22.4388 173.252 22.6867 174.278 22.6867C175.527 22.7089 176.621 22.5313 177.554 22.1556C178.492 21.801 179.293 21.3682 179.963 20.855C180.564 20.3895 181.078 19.8642 181.5 19.2887C181.589 19.1777 181.689 19.0334 181.8 18.8559C181.821 18.8109 181.845 18.7893 181.866 18.7893L181.966 18.8559L182 18.8897L181.989 18.896V18.8976ZM159.086 14.2662C159.618 14.2662 160.134 14.2329 160.622 14.1663C161.446 14.0109 162.194 13.7567 162.861 13.3984C163.909 12.8007 164.698 11.9985 165.236 10.9982C165.747 10.0638 166.014 9.02064 166.04 7.8649V7.43209C166.018 6.27687 165.751 5.23105 165.236 4.29937C164.703 3.29793 163.909 2.50101 162.861 1.89856C162.194 1.54397 161.446 1.28925 160.622 1.13071C160.422 1.10904 160.211 1.07522 159.989 1.03083L160.122 1.06358C159.722 1.01919 159.474 0.997527 159.385 0.997527H152.463V6.33131H152.43V10.3312H152.463V14.2662H159.086ZM173.996 16.7336V16.6342L174.967 15.1011V5.03552H174.999L174.967 1.70355L173.996 0.171013V0.0711365H178.209V0.171013L177.205 1.70355L177.237 6.30172H177.205V15.1011L178.209 16.6342V16.7336H173.996Z" fill="#62322D"/>
<path d="M65.9017 22.3989L64.1291 18.2658L56.4372 -1.52588e-05H55.8705L45.9394 22.2329L44.7351 23.9319V23.9985H47.6442V23.9319L46.7439 22.5986L48.9153 17.8007L49.3824 16.8669L55.3701 3.16654L61.0172 16.8669L61.4875 17.8007L63.5582 22.6325L62.7241 23.9325V23.9991H66.8698V23.9325L65.8991 22.3999L65.9017 22.3989Z" fill="#62322D"/>
<path d="M46.7338 22.8682C47.3747 21.6421 48.2639 20.5826 49.4496 19.8475C50.6354 19.1129 51.9838 18.7615 53.3369 18.5586C55.7757 18.1966 58.625 18.3033 60.7662 19.6631C61.989 20.442 62.8629 21.6168 63.3898 22.9543C63.5603 23.3903 64.2716 23.1979 64.0963 22.7588C63.1335 20.3014 61.1724 18.585 58.5943 17.9857C57.0754 17.6359 55.4595 17.5904 53.9105 17.7505C52.3619 17.9091 50.8165 18.2526 49.4528 18.9914C47.989 19.7851 46.8588 21.0307 46.092 22.4972C45.8738 22.9147 46.5066 23.2883 46.7264 22.8671L46.7338 22.8708V22.8682Z" fill="#62322D"/>
<path d="M118.702 22.3989L116.931 18.2658L109.238 0H108.671L98.7409 22.233L97.5371 23.932V23.9985H100.446V23.932L99.5443 22.5986L101.716 17.8007L102.183 16.8669L108.172 3.16655L113.822 16.8669L114.289 17.8007L116.36 22.6325L115.526 23.9325V23.9991H119.671V23.9325L118.701 22.3999L118.702 22.3989Z" fill="#62322D"/>
<path d="M99.5345 22.8682C100.176 21.6421 101.066 20.5826 102.251 19.8475C103.437 19.1129 104.786 18.7615 106.137 18.5586C108.577 18.1966 111.425 18.3033 113.567 19.6631C114.79 20.442 115.664 21.6168 116.19 22.9543C116.361 23.3903 117.072 23.1979 116.899 22.7588C115.935 20.3014 113.974 18.585 111.395 17.9857C109.876 17.6359 108.26 17.5904 106.712 17.7505C105.162 17.9091 103.617 18.2526 102.255 18.9914C100.791 19.7851 99.6601 21.0307 98.8927 22.4972C98.6745 22.9147 99.3089 23.2883 99.5271 22.8671L99.5345 22.8708V22.8682Z" fill="#62322D"/>
</svg>
