<?xml version="1.0" encoding="UTF-8" standalone="no"?><!DOCTYPE svg PUBLIC "-//W3C//DTD SVG 1.1//EN" "http://www.w3.org/Graphics/SVG/1.1/DTD/svg11.dtd"><svg width="100%" height="100%" viewBox="0 0 2342 2221" version="1.1" xmlns="http://www.w3.org/2000/svg" xmlns:xlink="http://www.w3.org/1999/xlink" xml:space="preserve" xmlns:serif="http://www.serif.com/" style="fill-rule:evenodd;clip-rule:evenodd;stroke-linejoin:round;stroke-miterlimit:2;"><path d="M1181.79,95.442l8.816,1.221l-8.816,1.22c-33.163,4.7 -58.692,31.521 -62.242,64.613l-2.896,30.829l-3.025,-30.829c-3.425,-33.263 -28.954,-59.913 -62.112,-64.613l-8.817,-1.221l8.817,-1.22c33.158,-4.7 58.687,-31.35 62.112,-64.617l3.025,-30.825l2.896,30.825c3.55,33.267 29.079,59.917 62.242,64.617Z" style="fill:#62322d;fill-rule:nonzero;"/><path d="M2151,175.428l4.292,0.637l-4.292,0.642c-16.208,2.462 -28.667,16.516 -30.417,33.858l-1.416,16.154l-1.5,-16.154c-1.667,-17.429 -14.125,-31.396 -30.334,-33.858l-4.291,-0.642l4.291,-0.637c16.209,-2.463 28.667,-16.43 30.334,-33.863l1.5,-16.154l1.416,16.154c1.75,17.433 14.209,31.4 30.417,33.863Z" style="fill:#62322d;fill-rule:nonzero;"/><path d="M940.783,303.28l4.305,0.637l-4.305,0.642c-16.2,2.463 -28.666,16.517 -30.404,33.859l-1.412,16.154l-1.479,-16.154c-1.671,-17.434 -14.142,-31.396 -30.338,-33.859l-4.308,-0.642l4.308,-0.637c16.196,-2.467 28.667,-16.429 30.338,-33.863l1.479,-16.154l1.412,16.154c1.738,17.434 14.204,31.396 30.404,33.863Z" style="fill:#62322d;fill-rule:nonzero;"/><path d="M174.342,1061.09l5.833,0.787l-5.833,0.788c-21.95,3.037 -38.85,20.35 -41.2,41.708l-1.917,19.9l-2.004,-19.9c-2.263,-21.471 -19.163,-38.671 -41.113,-41.708l-5.833,-0.788l5.833,-0.787c21.95,-3.034 38.85,-20.234 41.113,-41.709l2.004,-19.9l1.917,19.9c2.35,21.475 19.25,38.675 41.2,41.709Z" style="fill:#62322d;fill-rule:nonzero;"/><path d="M1239.58,174.148l3.65,0.442l-3.65,0.445c-13.742,1.717 -24.321,11.5 -25.792,23.571l-1.2,11.246l-1.254,-11.246c-1.416,-12.133 -11.996,-21.854 -25.737,-23.571l-3.655,-0.445l3.655,-0.442c13.741,-1.717 24.321,-11.438 25.737,-23.571l1.254,-11.246l1.2,11.246c1.471,12.133 12.05,21.854 25.792,23.571Z" style="fill:#62322d;fill-rule:nonzero;"/><path d="M596.071,258.225l7.567,0.988l-7.567,0.987c-28.463,3.812 -50.371,25.542 -53.421,52.35l-2.487,24.975l-2.596,-24.975c-2.938,-26.95 -24.85,-48.538 -53.309,-52.35l-7.57,-0.988l7.57,-0.987c28.459,-3.808 50.371,-25.396 53.309,-52.35l2.596,-24.971l2.487,24.971c3.05,26.954 24.958,48.542 53.421,52.35Z" style="fill:#62322d;fill-rule:nonzero;"/><path d="M350.296,685.754l3.8,0.559l-3.8,0.558c-14.221,2.004 -25.229,14.192 -26.679,29.3l-1.363,13.992l-1.358,-13.992c-1.488,-15.108 -12.463,-27.2 -26.683,-29.3l-3.801,-0.558l3.801,-0.559c14.22,-2.004 25.229,-14.191 26.683,-29.3l1.358,-13.991l1.363,13.991c1.45,15.109 12.458,27.2 26.679,29.3Z" style="fill:#62322d;fill-rule:nonzero;"/><path d="M1718.42,255.966l6.458,0.896l-6.458,0.896c-24.25,3.217 -42.959,22.775 -45.417,47.025l-2.333,22.458l-2.334,-22.458c-2.541,-24.25 -21.208,-43.65 -45.416,-47.025l-6.5,-0.896l6.5,-0.896c24.208,-3.216 42.916,-22.775 45.416,-47.025l2.334,-22.458l2.333,22.458c2.458,24.25 21.167,43.65 45.417,47.025Z" style="fill:#62322d;fill-rule:nonzero;"/><path d="M2219.46,518.954l8.25,1.042l-8.25,1.05c-30.666,3.75 -54.333,26.575 -57.458,54.866l-2.917,26.209l-2.916,-26.208c-3.209,-28.292 -26.834,-50.93 -57.459,-54.867l-8.208,-1.05l8.208,-1.042c30.709,-3.754 54.334,-26.575 57.459,-54.875l2.916,-26.2l2.917,26.2c3.25,28.3 26.833,50.938 57.458,54.875Z" style="fill:#62322d;fill-rule:nonzero;"/><path d="M451.604,1162.88l-12.058,0.208l-155.083,3.009c-2.95,0.05 -5.371,2.529 -5.371,5.533c0,3.004 2.421,5.379 5.371,5.483l74.458,1.421l27.912,0.579c13.796,-2.741 28.755,-2.42 44.605,0.846l22.641,0.425c-1.212,-5.75 -2.004,-11.65 -2.421,-17.558l-0.054,0.054Zm426.171,-8.275l-64.092,1.213l-30.854,0.629l-11.954,0.212c0.738,3.692 1.317,7.325 1.738,11.017l44.55,-0.842c19.429,-5.166 40.075,-5.641 59.854,-1.162l31.521,-0.629c-9.655,-4.592 -20.03,-8.121 -30.721,-10.438l-0.042,0Zm42.058,16.342c0,-3.8 0.08,-7.542 0.238,-11.388c0,-1.533 -0.6,-2.954 -1.596,-4.062c-0.279,-0.263 -0.558,-0.525 -0.838,-0.738c-0.358,-0.212 -0.72,-0.421 -1.037,-0.525c-0.4,-0.212 -0.8,-0.266 -1.158,-0.371c-0.4,-0.104 -0.638,-0.05 -0.959,-0.05l-36.708,0.734l-64.092,1.212l-30.854,0.638l-11.954,0.208c0.738,3.692 1.317,7.329 1.738,11.017l44.55,-0.842c19.429,-5.167 40.075,-5.642 59.854,-1.158l31.521,-0.634l0.399,0l0,0.209c-0.037,4.112 -0.037,8.121 0,12.233c3.913,2.004 7.663,4.321 11.176,6.75l0,-0.583c-0.163,-3.371 -0.2,-6.75 -0.2,-10.229l0,-2.53l-0.08,0.109Zm-284.45,2.004l-11.637,-0.213c3.371,3.109 6.108,6.85 8.217,11.175l10.162,0.213c-1.792,-4.063 -4.004,-7.804 -6.688,-11.175l-0.054,0Zm-7.266,-7.696c-2.213,-1.954 -4.95,-3.958 -8.213,-5.696l-0.058,0l-43.283,0.842c-8.426,4.854 -14.746,12.229 -17.113,20.875c-0.054,0.371 -0.213,0.742 -0.213,1.162l7.846,0.155c1.529,-4.059 4.159,-7.8 7.634,-10.805l-5.684,-0.158l5.954,-0.158c0.521,-0.421 0.996,-0.846 1.576,-1.321c9.954,-7.325 24.433,-9.063 36.124,-4.371c3.105,1.213 5.95,2.896 8.475,4.846l12.167,-0.208c-1.579,-1.896 -3.317,-3.584 -5.158,-5.163l-0.054,0Zm145.233,10.379c0.054,0.425 0.158,0.796 0.158,1.213c0.159,2.375 1.634,4.591 3.738,5.696c1.158,0.583 3,1 5.108,-0.367c3.529,-2.217 7.113,-4.325 10.796,-6.171l-19.8,-0.371Z" style="fill:#62322d;fill-rule:nonzero;"/><path d="M935.592,1057.43c0,0 -0.2,-0.37 -0.359,-0.525c-0.2,-0.37 -0.437,-0.637 -0.8,-0.845c-0.279,-0.263 -0.637,-0.53 -0.995,-0.738c-0.359,-0.208 -0.838,-0.371 -1.317,-0.529l-611.692,-151.463c-2.95,-0.737 -5.896,1.059 -6.687,3.955c-0.734,2.9 0.95,5.904 3.795,6.695l279.567,80.871l101.629,29.367l224.171,64.792c0.438,0.158 0.838,0.212 1.354,0.212l0.242,0c0.358,0 0.717,0 0.996,-0.054c0.4,-0.054 0.758,-0.213 1.158,-0.421c0.2,0 0.358,-0.162 0.559,-0.212c1.316,-0.792 2.233,-2.005 2.595,-3.534c1.796,-7.641 3.909,-15.5 6.263,-23.354c0.4,-1.425 0.279,-3.004 -0.517,-4.325l0.038,0.108Zm-15.121,19.505l-326.95,-94.575l330.379,81.766c-1.196,4.321 -2.354,8.592 -3.471,12.809l0.042,0Z" style="fill:#62322d;fill-rule:nonzero;"/><path d="M957.858,982.104l-291.204,-175.921l297.825,164.48c-2.192,3.745 -4.466,7.537 -6.621,11.441Zm19.713,-14.921c-0.083,-0.262 -0.242,-0.579 -0.4,-0.845c-0.163,-0.367 -0.359,-0.734 -0.558,-1c-0.28,-0.367 -0.6,-0.63 -0.838,-0.842c-0.279,-0.263 -0.6,-0.425 -0.958,-0.633l-551.759,-304.771c-2.583,-1.529 -5.904,-0.579 -7.429,2.004c-1.525,2.687 -0.633,5.958 1.95,7.483l539.559,326.017c0.362,0.212 0.72,0.371 1.158,0.529c0.358,0.158 0.758,0.208 1.196,0.208c0.162,0.055 0.279,0.055 0.441,0.055c0.2,0 0.4,0 0.596,-0.055c0.279,0 0.6,-0.05 0.8,-0.154c1.517,-0.421 2.754,-1.371 3.471,-2.741c3.792,-7.067 7.862,-14.13 12.012,-20.875c0.838,-1.321 1.117,-2.796 0.759,-4.325l0,-0.055Z" style="fill:#62322d;fill-rule:nonzero;"/><path d="M1018.55,913.671c-1.475,0 -2.95,-0.629 -3.95,-1.683l-436.871,-454.651c-2.104,-2.162 -2.054,-5.591 0.054,-7.75c2.109,-2.108 5.584,-2.162 7.742,-0.054l454.133,437.363c1.121,1.054 1.679,2.475 1.679,4.004c0,1.529 -0.641,2.954 -1.716,4.008c-5.909,5.534 -11.613,11.279 -17.038,17.079c-1.037,1.109 -2.475,1.742 -3.992,1.742l-0.041,-0.058Zm-235.871,-258.95l235.871,245.458c3.033,-3.166 6.146,-6.275 9.3,-9.329l-245.171,-236.129Z" style="fill:#62322d;fill-rule:nonzero;"/><path d="M1096.16,849.879c-0.479,0 -0.958,-0.054 -1.437,-0.158c-1.479,-0.371 -2.675,-1.371 -3.433,-2.688l-304.405,-552.288c-1.475,-2.637 -0.525,-5.954 2.055,-7.433c2.579,-1.529 5.95,-0.633 7.479,1.95l325.596,540.109c0.8,1.317 0.995,2.846 0.558,4.321c-0.4,1.479 -1.354,2.691 -2.713,3.429c-7.062,3.741 -14.087,7.8 -20.871,12.021c-0.875,0.525 -1.875,0.846 -2.87,0.846l0.041,-0.109Zm-162.241,-311.362l164.275,298.129c3.791,-2.267 7.579,-4.479 11.45,-6.592l-175.725,-291.537Z" style="fill:#62322d;fill-rule:nonzero;"/><path d="M1187.73,808.658c-0.958,0 -1.912,-0.262 -2.75,-0.737c-1.317,-0.738 -2.275,-2.004 -2.633,-3.479l-151.271,-612.494c-0.754,-2.9 1,-5.904 3.954,-6.641c2.871,-0.792 5.863,0.896 6.742,3.796l174.85,606.164c0.437,1.479 0.237,3.008 -0.521,4.325c-0.796,1.316 -2.033,2.266 -3.512,2.583c-3.392,0.792 -6.9,1.683 -10.892,2.688c-4.071,1.054 -8.221,2.266 -12.408,3.533c-0.521,0.154 -1.038,0.262 -1.596,0.262l0.037,0Zm-77.725,-343.254l81.675,330.759c2.438,-0.684 4.829,-1.371 7.225,-2.005c1.913,-0.525 3.788,-1 5.584,-1.42l-94.484,-327.334Z" style="fill:#62322d;fill-rule:nonzero;"/><path d="M1286.77,792.258c-1.396,0 -2.834,-0.579 -3.871,-1.583c-1.079,-1.054 -1.717,-2.529 -1.638,-4.058l12.213,-630.728c0.037,-3.008 2.512,-5.433 5.504,-5.433c3.033,0 5.508,2.425 5.546,5.433l12.212,630.678c0,1.529 -0.558,2.95 -1.637,4.058c-1.038,1.054 -2.513,1.633 -4.029,1.579c-8.063,-0.262 -16.163,-0.262 -24.063,0l-0.158,0l-0.079,0.054Zm12.208,-351.479l-6.542,340.304c4.35,-0.054 8.78,-0.108 13.125,0l-6.583,-340.254l0,-0.05Z" style="fill:#62322d;fill-rule:nonzero;"/><path d="M1410.26,808.55c-0.52,0 -1.037,-0.05 -1.595,-0.263c-7.784,-2.374 -15.642,-4.479 -23.263,-6.274c-1.479,-0.367 -2.754,-1.267 -3.512,-2.584c-0.8,-1.317 -0.959,-2.846 -0.559,-4.321l174.875,-606.058c0.834,-2.9 3.792,-4.588 6.75,-3.796c2.917,0.787 4.625,3.741 3.959,6.641l-151.23,612.438c-0.358,1.48 -1.316,2.742 -2.633,3.48c-0.837,0.474 -1.796,0.737 -2.754,0.737l-0.038,0Zm-16.679,-15.867c4.188,1.054 8.459,2.213 12.729,3.429l81.646,-330.55l-94.375,327.121Z" style="fill:#62322d;fill-rule:nonzero;"/><path d="M1501.79,849.988c-1,0 -2.042,-0.263 -2.917,-0.846c-6.875,-4.267 -13.875,-8.325 -20.875,-12.067c-1.292,-0.742 -2.292,-1.954 -2.708,-3.429c-0.417,-1.475 -0.209,-3.004 0.583,-4.325l325.625,-540.157c1.542,-2.583 4.917,-3.429 7.5,-1.954c2.583,1.533 3.5,4.8 2.042,7.433l-304.417,552.395c-0.708,1.316 -1.958,2.266 -3.417,2.687c-0.5,0.104 -0.958,0.158 -1.375,0.158l-0.041,0.105Zm-13.5,-19.875c3.833,2.108 7.625,4.324 11.416,6.641l164.5,-298.387l-175.916,291.746Z" style="fill:#62322d;fill-rule:nonzero;"/><path d="M1579.46,913.671c-1.541,0 -2.916,-0.629 -4,-1.738c-5.5,-5.9 -11.25,-11.65 -17.041,-17.025c-1.125,-1.054 -1.75,-2.479 -1.75,-4.008c0,-1.529 0.583,-2.95 1.666,-4.004l454.167,-437.363c2.167,-2.108 5.542,-2.054 7.75,0.055c2.042,2.108 2.125,5.587 0.042,7.75l-436.834,454.65c-1.083,1.108 -2.458,1.683 -3.916,1.683l-0.084,0Zm-9.333,-22.821c3.167,3.054 6.292,6.163 9.333,9.329l235.834,-245.458l-245.167,236.129Z" style="fill:#62322d;fill-rule:nonzero;"/><path d="M1638.04,995.279c-0.5,0 -1,-0.05 -1.5,-0.212c-1.459,-0.417 -2.667,-1.367 -3.417,-2.742c-3.708,-7.008 -7.792,-14.071 -12.042,-20.925c-0.75,-1.267 -1,-2.846 -0.583,-4.325c0.375,-1.475 1.375,-2.688 2.667,-3.425l551.666,-304.717c2.625,-1.425 5.917,-0.529 7.417,2.054c1.542,2.588 0.625,5.959 -1.958,7.488l-539.459,325.962c-0.875,0.525 -1.833,0.792 -2.833,0.792l0.042,0.05Zm-4.5,-24.725c2.291,3.796 4.5,7.642 6.583,11.492l291.375,-176.029l-297.958,164.591l0,-0.054Z" style="fill:#62322d;fill-rule:nonzero;"/><path d="M2224.58,1413.03c-1.208,4.271 -2.166,8.646 -3,12.967l10.917,2.691c0.75,-4.162 1.625,-8.329 2.792,-12.546l-10.709,-3.112Zm-262.708,-75.971l-169.875,-49.133l-1.625,-0.525l-0.042,0l-1.625,-0.421l-5.25,-1.583l-1.625,-0.421l-1.625,-0.529c3,4.483 5.875,9.071 8.5,13.916l1.417,0.425l1.542,0.421l4.708,1.425l1.583,0.421l1.542,0.421l156.792,45.392l8.833,2.533c1.792,-3.321 3.75,-6.538 5.75,-9.808l-8.917,-2.584l-0.083,0.05Zm-6.5,11.6l-151.458,-37.533l-1.375,-0.263l-1.417,-0.37l-4.583,-1.159l-1.334,-0.371l-1.333,-0.262c1.958,4.162 3.792,8.433 5.542,12.754l1.291,0.371l1.334,0.262l4.458,1.055l1.375,0.37l1.333,0.367l141.25,34.954l8.875,2.217c1.5,-3.375 3.167,-6.854 5.042,-10.175l-8.917,-2.217l-0.083,0Zm-280.375,-94.579c0,0 -0.208,-0.05 -0.375,-0.05c-0.333,-0.05 -0.708,-0.158 -1.042,-0.158c-1,0 -2,0.208 -2.916,0.737c-1.167,0.738 -2.084,1.9 -2.375,3.217c0,0.05 0,0.208 -0.167,0.262c-1.792,7.646 -3.917,15.5 -6.25,23.25c-0.25,0.792 -0.292,1.634 -0.167,2.425c0.042,0.634 0.25,1.317 0.584,1.896c0.666,1.163 1.625,2.004 2.791,2.425c0.25,0.054 0.459,0.163 0.667,0.213l0.417,0l1,0.366c3.375,-11.279 6.166,-22.77 8.458,-34.42l-0.708,-0.213l0.083,0.05Z" style="fill:#62322d;fill-rule:nonzero;"/><path d="M2284.17,907.35c-0.792,-2.954 -3.75,-4.696 -6.667,-3.954l-611.75,151.462c-0.375,0.05 -0.708,0.209 -1.042,0.367c-0.375,0.158 -0.625,0.371 -0.958,0.579c-0.375,0.267 -0.625,0.529 -0.958,0.842c-0.209,0.266 -0.334,0.579 -0.542,0.846c-0.75,1.32 -0.833,2.9 -0.458,4.325c1.208,4.058 2.458,8.22 3.583,12.387c1,4.163 1.875,7.642 2.708,10.859c0.25,1.533 1.167,2.741 2.5,3.533c0.375,0.208 0.75,0.367 1.084,0.421c0.333,0.212 0.791,0.262 1.125,0.262c0.208,0.054 0.375,0.054 0.583,0.054c0.167,0 0.375,0 0.542,-0.054c0.375,0 0.75,-0.05 1.041,-0.154l605.417,-175.137c2.875,-0.792 4.625,-3.796 3.792,-6.696l0,0.058Zm-606.75,169.596c-0.459,-1.742 -0.834,-3.588 -1.459,-5.538c-0.625,-2.425 -1.291,-4.85 -1.958,-7.225l330.375,-81.816l-326.958,94.579Z" style="fill:#62322d;fill-rule:nonzero;"/><path d="M1689.13,1178.22c0.083,-4.379 0,-8.808 -0.042,-13.179l339.917,6.641l-339.792,6.538l-0.083,0Zm600.042,-12.6l-12.125,-0.213l-12.25,-0.212l-36.959,-0.738l-544.291,-10.595c0,0 -0.5,0 -0.709,0.054c-0.375,0 -0.75,0.05 -1.125,0.212c-0.375,0.05 -0.625,0.208 -1,0.525c-0.375,0.158 -0.833,0.525 -1.208,0.842c-1.042,1.058 -1.625,2.533 -1.583,4.062c0.291,8.013 0.291,16.075 0,24.146c0,1.525 0.583,2.95 1.583,4.058c0.417,0.421 1,0.846 1.583,1.055c0.375,0.208 0.75,0.366 1.084,0.42c0.291,0.05 0.708,0.159 1,0.159l0.375,0l504.458,-9.809l22.708,-0.416c19.084,-6.696 40.375,-7.067 63.625,-1.213l16.875,-0.371c-0.833,-3.954 -1.541,-7.912 -2.041,-11.966Z" style="fill:#62322d;fill-rule:nonzero;"/><path d="M951.671,1015.53c-0.158,-0.262 -0.238,-0.525 -0.358,-0.796c-0.238,-0.262 -0.438,-0.575 -0.759,-0.787c-0.279,-0.367 -0.558,-0.629 -0.958,-0.95l-0.038,0c-0.358,-0.208 -0.637,-0.367 -0.996,-0.525l-413.854,-160.529c-2.791,-1.054 -5.95,0.262 -7.058,3.004c-1.158,2.792 0.158,5.958 2.896,7.221l407.2,176.454c0.441,0.154 0.837,0.262 1.317,0.367c0.279,0.158 0.641,0.158 0.958,0.158l0.279,0c0.358,0 0.721,-0.05 1.038,-0.208c0.2,0 0.52,-0.163 0.758,-0.213c1.396,-0.633 2.512,-1.742 2.992,-3.167c1.995,-5.108 4.15,-10.437 6.466,-15.708c0.596,-1.367 0.638,-2.954 0.038,-4.321l0.079,0Zm-14.763,10.754l-141.325,-61.312l143.642,55.721c-0.8,1.9 -1.517,3.691 -2.317,5.537l0,0.054Z" style="fill:#62322d;fill-rule:nonzero;"/><path d="M1003.43,929.596c-0.158,-0.421 -0.279,-0.788 -0.517,-1.05c-0.283,-0.271 -0.441,-0.583 -0.758,-0.85c-0.2,-0.208 -0.4,-0.421 -0.642,-0.575l-358.175,-262.279c-2.42,-1.738 -5.845,-1.213 -7.633,1.158c-1.9,2.375 -1.425,5.746 0.946,7.646l347.825,276.037c0.242,0.209 0.521,0.421 0.758,0.525c0.4,0.213 0.8,0.371 1.196,0.421c0.363,0.159 0.758,0.213 1.158,0.213l1.08,0c1.437,-0.213 2.791,-1.004 3.708,-2.217c3.312,-4.583 6.746,-9.117 10.254,-13.546c0.958,-1.162 1.358,-2.687 1.158,-4.166c-0.037,-0.421 -0.158,-0.842 -0.358,-1.213l0,-0.104Zm-137.133,-87.883l124.166,90.887c-1.2,1.583 -2.433,3.167 -3.591,4.746l-120.575,-95.633Z" style="fill:#62322d;fill-rule:nonzero;"/><path d="M1056.97,877.821l-0.679,0c-1.479,-0.213 -2.833,-1 -3.75,-2.163l-264.492,-356.645c-1.791,-2.426 -1.316,-5.8 1.05,-7.646c2.367,-1.842 5.792,-1.421 7.688,0.9l278.137,346.1c0.959,1.158 1.396,2.687 1.159,4.162c-0.2,1.479 -1,2.85 -2.196,3.746c-4.588,3.375 -9.1,6.904 -13.446,10.383c-1,0.792 -2.196,1.267 -3.471,1.267l0,-0.104Zm-90.737,-137.121l91.812,123.729c1.558,-1.212 3.154,-2.425 4.708,-3.637l-96.441,-120.042l-0.079,-0.05Z" style="fill:#62322d;fill-rule:nonzero;"/><path d="M1142.6,825.371c-0.675,0 -1.433,-0.159 -2.112,-0.425c-1.359,-0.579 -2.475,-1.688 -3.071,-3.054l-163.321,-413.11c-1.117,-2.795 0.2,-5.958 2.996,-7.12c2.712,-1.159 5.941,0.108 7.141,2.85l179.275,406.467c0.642,1.367 0.642,2.95 0,4.371c-0.637,1.425 -1.712,2.479 -3.108,3.063c-5.108,1.95 -10.375,4.162 -15.642,6.483c-0.758,0.317 -1.479,0.475 -2.275,0.475l0.117,0Zm-53.546,-156.05l56.579,143.133c1.838,-0.796 3.713,-1.529 5.546,-2.321l-62.083,-140.866l-0.042,0.054Z" style="fill:#62322d;fill-rule:nonzero;"/><path d="M923.025,1110.79c0,0 -0.279,-0.367 -0.558,-0.529c-0.242,-0.263 -0.563,-0.58 -0.921,-0.788c-0.396,-0.212 -0.758,-0.371 -1.154,-0.529c-0.4,-0.159 -0.8,-0.213 -1.238,-0.263l-159.55,-17.291l-14.746,-1.584c4.684,7.488 8.846,15.396 12.534,23.567l13.587,2.004l144.584,21.404l1.158,0c0.396,0 0.796,-0.054 1.196,-0.212c0.358,-0.05 0.716,-0.213 1.037,-0.425l0.038,0c0,0 0.521,-0.263 0.758,-0.525c1.2,-0.842 1.958,-2.213 2.154,-3.742c0.642,-6.062 1.359,-11.546 2.159,-16.871c0.195,-1.529 -0.163,-3.004 -1.038,-4.27l0,0.054Zm-11.454,14.179l-145.808,-21.508l-6.634,-1l6.529,0.737l146.671,15.921c-0.279,1.954 -0.558,3.904 -0.796,5.908l0.038,-0.058Zm-439.538,-59.363c-0.266,2.217 0.788,4.325 2.53,5.38c2.208,-3.376 4.579,-6.642 7.104,-9.805l-3.579,-0.37c-2.946,-0.367 -5.684,1.791 -6.055,4.745l0,0.05Z" style="fill:#62322d;fill-rule:nonzero;"/><path d="M1238.92,796.846c-1.196,0 -2.396,-0.371 -3.312,-1.113c-1.238,-0.891 -1.996,-2.262 -2.155,-3.791l-50.995,-441.362c-0.359,-3.009 1.758,-5.696 4.75,-6.121c2.95,-0.417 5.745,1.637 6.224,4.641l68.03,438.996c0.2,1.475 -0.159,3.004 -1.075,4.217c-0.879,1.212 -2.234,1.95 -3.713,2.158c-5.583,0.633 -11.212,1.425 -16.796,2.321c-0.32,0 -0.6,0.054 -0.92,0.054l-0.038,0Zm-12.85,-164.804l17.638,152.941c1.954,-0.266 3.949,-0.579 5.904,-0.841l-23.579,-152.15l0.037,0.05Z" style="fill:#62322d;fill-rule:nonzero;"/><path d="M1356.32,796.317c-0.242,0 -0.563,0 -0.842,-0.05c-5.267,-0.792 -10.771,-1.529 -16.837,-2.163c-1.475,-0.158 -2.834,-0.95 -3.792,-2.108c-0.917,-1.213 -1.317,-2.688 -1.117,-4.167l64.884,-439.411c0.437,-2.954 3.15,-5.063 6.141,-4.696c3.034,0.371 5.109,3.063 4.788,6.067l-47.759,441.623c-0.12,1.48 -0.92,2.851 -2.075,3.796c-0.958,0.738 -2.158,1.163 -3.391,1.163l0,-0.054Zm-10.775,-12.546c1.996,0.262 3.991,0.471 5.946,0.791l16.6,-153.412l-22.546,152.621Z" style="fill:#62322d;fill-rule:nonzero;"/><path d="M1452.84,824.258c-0.759,0 -1.559,-0.158 -2.234,-0.471c-5.108,-2.27 -10.417,-4.429 -15.683,-6.487c-1.438,-0.529 -2.513,-1.633 -3.113,-3.008c-0.558,-1.367 -0.558,-2.95 0,-4.321l176.234,-407.728c1.25,-2.742 4.416,-4.058 7.208,-2.9c2.792,1.162 4.125,4.325 3,7.117l-160.292,414.319c-0.583,1.425 -1.666,2.534 -3.041,3.113c-0.667,0.262 -1.4,0.421 -2.079,0.421l0,-0.055Zm-8.659,-15.129c1.834,0.733 3.709,1.529 5.546,2.267l55.65,-143.821l-61.196,141.554Z" style="fill:#62322d;fill-rule:nonzero;"/><path d="M2119.08,1054.9l-440.833,51.088c-0.375,0 -0.667,0.05 -0.917,0.208c-0.416,0.054 -0.791,0.208 -1.041,0.367c-0.375,0.212 -0.75,0.425 -1,0.637c-0.375,0.263 -0.584,0.579 -0.834,0.946c-0.875,1.213 -1.208,2.742 -1,4.271c0.959,5.537 1.75,11.229 2.292,16.762c0.25,1.53 0.958,2.905 2.167,3.746c0.375,0.263 0.75,0.525 1.166,0.738c0.375,0.158 0.75,0.212 1.042,0.262c0.375,0.159 0.75,0.159 1.125,0.159l0.042,0c0.25,0 0.541,0 0.791,-0.051l438.542,-68.116c2.958,-0.421 5.042,-3.159 4.583,-6.167c-0.416,-2.95 -3.125,-5.062 -6.125,-4.746l0,-0.104Zm-433.125,67.271c-0.208,-1.95 -0.5,-3.904 -0.75,-5.904l152.792,-17.663l-152.042,23.567Z" style="fill:#62322d;fill-rule:nonzero;"/><path d="M2121.25,1271.38l-45.542,-6.75l-393.375,-58.096c-0.375,-0.054 -0.75,-0.054 -1.041,-0.054c-0.334,0 -0.792,0.054 -1.167,0.158c-0.708,0.213 -1.375,0.58 -1.958,1.005c-1.209,0.841 -1.917,2.212 -2.167,3.741c-0.583,5.959 -1.333,11.546 -2.167,16.871l0,1.579c0,0.371 0.084,0.738 0.25,1.059c0.209,0.579 0.542,1.05 0.834,1.525c0.583,0.741 1.333,1.316 2.083,1.633c0.417,0.212 0.75,0.262 1.083,0.371c0.167,0.054 0.25,0.054 0.417,0.054c0.042,0.05 0.125,0.05 0.208,0.05l0.375,0l7.417,0.846l1.167,0c0,0 0.291,0 0.333,0.054l28.333,3.162l0.292,0l7.083,0.792l14.792,1.579l3.708,0.421l0.084,0l3,0.262l292.708,31.742l20.875,2.213c22.208,-5.167 45.208,-4.479 66.75,2.791c0.042,-0.262 0.167,-0.633 0.208,-0.95c0.375,-3.004 -1.625,-5.745 -4.666,-6.166l0.083,0.108Zm-435.625,-47.242c0.25,-1.946 0.5,-3.895 0.75,-5.9l152.125,22.459l-152.875,-16.559Z" style="fill:#62322d;fill-rule:nonzero;"/><path d="M1538.83,876.138c-1.291,0 -2.458,-0.421 -3.458,-1.209c-4.417,-3.479 -8.917,-6.958 -13.5,-10.283c-1.208,-0.896 -2,-2.217 -2.25,-3.742c-0.208,-1.479 0.25,-3.004 1.167,-4.167l275.666,-348.158c1.834,-2.371 5.292,-2.792 7.709,-0.946c2.375,1.846 2.875,5.221 1.125,7.642l-262,358.596c-0.875,1.212 -2.209,2.004 -3.75,2.212l-0.709,0l0,0.054Zm-5.875,-16.974c1.584,1.212 3.167,2.425 4.75,3.637l90.792,-124.258l-95.542,120.675l0,-0.054Z" style="fill:#62322d;fill-rule:nonzero;"/><path d="M1608.5,948.467l-0.75,0c-1.5,-0.213 -2.833,-1 -3.75,-2.213c-3.375,-4.587 -6.875,-9.125 -10.375,-13.446c-0.917,-1.158 -1.375,-2.687 -1.208,-4.166c0.166,-1.475 1,-2.842 2.166,-3.742l356.209,-264.804c2.458,-1.796 5.791,-1.321 7.666,1.05c1.834,2.371 1.417,5.8 -0.916,7.7l-345.709,278.458c-1,0.792 -2.166,1.213 -3.458,1.213l0.125,-0.05Zm-2.708,-18.134c1.208,1.579 2.416,3.163 3.625,4.742l119.916,-96.579l-123.583,91.887l0.042,-0.05Z" style="fill:#62322d;fill-rule:nonzero;"/><path d="M1656.96,1036.51c-0.75,0 -1.416,-0.158 -2.083,-0.42c-1.375,-0.58 -2.5,-1.684 -3.042,-3.109c-1.958,-5.116 -4.208,-10.337 -6.5,-15.658c-0.666,-1.371 -0.666,-2.954 -0.041,-4.325c0.541,-1.371 1.666,-2.479 3.041,-3.058l412.625,-163.534c2.834,-1.108 5.959,0.209 7.125,3.009c1.167,2.791 -0.125,5.954 -2.833,7.166l-406,179.454c-0.708,0.317 -1.458,0.475 -2.25,0.475l-0.042,0Zm0.75,-18.395c0.792,1.841 1.542,3.687 2.292,5.533l140.75,-62.208l-143.042,56.674Z" style="fill:#62322d;fill-rule:nonzero;"/><path d="M1660.92,1304.9l-0.75,-0.263c0,0 -0.167,-0.054 -0.209,-0.054c-1.291,-0.579 -2.791,-0.579 -4.125,0c-0.25,0.054 -0.5,0.213 -0.75,0.367c-0.916,0.529 -1.541,1.321 -2,2.162c-0.125,0.213 -0.166,0.371 -0.208,0.58c-2.25,5.75 -4.375,10.862 -6.5,15.766c-0.25,0.63 -0.417,1.367 -0.542,2.109c0,0 0.167,0.054 0,0.054c0,0.737 0.167,1.366 0.459,2.108c0.541,1.421 1.708,2.579 3.083,3.109l0.375,0.158l1,0.371l1.042,0.416c3.75,-8.641 7.083,-17.445 10.041,-26.358l-1,-0.417l0.084,-0.108Zm285,123.521l-9.709,-4.163l-110.5,-47.87l-1.208,-0.58l-1.333,-0.583l-4.709,-2l-1.208,-0.529l-0.042,0l-1.291,-0.629c0.583,2.158 1.166,4.371 1.875,6.533l0.125,0.529c1.916,6.642 3.708,13.021 5.583,19.138l2.625,1.05l4.542,1.796l1.333,0.529l1.375,0.525l104.125,40.383l10.542,4.113c-1.125,-5.959 -1.792,-12.021 -2,-18.138l-0.125,-0.104Z" style="fill:#62322d;fill-rule:nonzero;"/><path d="M1262.39,1284.66c-1.317,0 -2.434,-1.213 -2.517,-2.9c-0.838,-17.45 -1.596,-35.796 -2.154,-57.675c-0.596,-23.721 -0.479,-47.55 -0.238,-70.538c0,-13.021 0.238,-26.308 0.238,-39.592c0,-23.25 -1.434,-42.545 -7.659,-60.575c-4.791,-13.762 -11.454,-26.466 -19.991,-37.641c-18.634,-24.779 -45.809,-41.438 -76.45,-46.659c-70.746,-12.229 -109.65,58.888 -110.013,59.521c-0.758,1.371 -2.271,1.846 -3.471,0.738c-1.237,-0.896 -1.433,-2.9 -0.595,-4.429c0.358,-0.738 10.254,-19.134 29.445,-35.955c17.675,-15.604 46.805,-32.895 85.309,-26.308c31.683,5.483 59.975,22.779 79.446,48.504c8.858,11.759 15.92,25.096 20.945,39.488c6.588,18.979 8.021,39.012 8.184,63.158c0,13.288 0,26.621 -0.279,39.646c-0.242,22.929 -0.363,46.812 0.279,70.379c0.596,21.875 1.316,40.225 2.154,57.517c0,1.683 -0.958,3.216 -2.275,3.371l-0.358,0l0,-0.05Z" style="fill:#62322d;fill-rule:nonzero;"/><path d="M1368.65,1390.68l-0.321,0.213c-0.637,0.371 -1.275,0.95 -2.033,1.529c-14.125,10.7 -49.08,35.904 -73.063,36.642c-22.541,0.737 -56.179,-24.992 -72.541,-37.434c-0.796,-0.579 -1.434,-1.162 -2.234,-1.737c-0.796,-0.58 -1.437,-1.163 -2.033,-1.529c2.671,-0.95 6.341,-2.267 10.454,-4.009c13.487,-5.746 32.717,-14.708 45.408,-25.412c2.355,-1.896 5.584,-1.738 7.621,0.371l5.904,5.533c3.154,3.058 7.621,3.271 10.813,0.375l7.942,-6.858c2.195,-1.9 5.266,-1.9 7.462,0c10.013,8.808 32.558,20.404 48.6,28.47c3.033,1.53 5.746,2.688 8.138,3.796l-0.117,0.05Z" style="fill:#62322d;fill-rule:nonzero;"/><path d="M1324.75,1285.77l-0.121,0c-1.358,-0.159 -2.433,-1.688 -2.433,-3.375c0.917,-17.292 1.633,-35.638 2.275,-57.517c0.638,-23.563 0.517,-47.392 0.279,-70.379c-0.279,-13.021 -0.279,-26.309 -0.279,-39.642c0.117,-24.15 1.633,-44.233 8.579,-63.162c5.304,-14.392 12.725,-27.675 22.063,-39.488c20.591,-25.671 50.395,-42.966 83.833,-48.5c40.675,-6.587 71.3,10.704 89.967,26.309c20.25,16.816 30.75,35.166 31.083,35.954c0.917,1.529 0.667,3.533 -0.625,4.429c-1.25,1.054 -2.875,0.629 -3.625,-0.738c-0.375,-0.633 -41.375,-71.75 -116,-59.52c-32.321,5.22 -60.971,21.879 -80.683,46.658c-8.938,11.175 -16,23.879 -21.109,37.637c-6.541,18.034 -8.058,37.33 -8.058,60.575c0,13.288 0.237,26.625 0.237,39.596c0.28,22.929 0.4,46.813 -0.237,70.538c-0.638,21.875 -1.438,40.225 -2.275,57.67c-0.079,1.688 -1.275,2.905 -2.633,2.905l-0.238,0l0,0.05Z" style="fill:#62322d;fill-rule:nonzero;"/><path d="M1169.34,1164.78c-4.43,-7.596 -9.417,-14.975 -14.884,-21.829l4.509,-3.638c5.625,7.117 10.812,14.713 15.362,22.563l-4.987,2.904Z" style="fill:#62322d;fill-rule:nonzero;"/><path d="M1138.73,1201.63c-3.154,-17.767 -7.741,-35.375 -13.566,-52.4l5.466,-1.9c5.942,17.346 10.65,35.267 13.846,53.3l-5.666,1l-0.08,0Z" style="fill:#62322d;fill-rule:nonzero;"/><path d="M1052.38,1172.52l-5.108,-2.742c5.788,-10.962 11.254,-22.775 16.321,-35.054l5.346,2.213c-5.104,12.491 -10.692,24.458 -16.559,35.583Z" style="fill:#62322d;fill-rule:nonzero;"/><path d="M1083.35,1215.01l-5.587,-1.53c5.904,-21.454 10.012,-43.65 12.25,-66.004l5.783,0.584c-2.275,22.666 -6.421,45.233 -12.367,67.004l-0.079,-0.054Z" style="fill:#62322d;fill-rule:nonzero;"/><path d="M1113.63,1154.23c-18.275,0 -35.87,-7.537 -52.987,-14.866l-5.746,-2.425c-5.629,-2.375 -11.096,-4.534 -16.842,-5.167c-6.062,-0.634 -11.65,0.791 -15.279,3.904l-3.712,-4.429c4.866,-4.117 12.05,-6.063 19.633,-5.221c6.5,0.688 12.488,3.004 18.471,5.587l5.787,2.476c19.434,8.279 39.542,16.929 59.655,13.654c21.545,-3.421 33.237,-7.696 55.82,-24.671l3.471,4.641c-23.9,17.925 -36.787,22.296 -58.375,25.725c-3.312,0.525 -6.625,0.792 -9.896,0.792Z" style="fill:#62322d;fill-rule:nonzero;"/><path d="M1411.02,1164.78l-4.988,-2.904c4.509,-7.85 9.696,-15.446 15.363,-22.563l4.546,3.638c-5.467,6.908 -10.492,14.233 -14.921,21.829Z" style="fill:#62322d;fill-rule:nonzero;"/><path d="M1441.66,1201.63l-5.705,-1c3.234,-18.033 7.863,-35.954 13.846,-53.3l5.488,1.9c-5.888,17.025 -10.434,34.683 -13.588,52.4l-0.041,0Z" style="fill:#62322d;fill-rule:nonzero;"/><path d="M1527.96,1172.52c-5.833,-11.175 -11.416,-23.142 -16.541,-35.583l5.333,-2.213c5.042,12.279 10.5,24.092 16.333,35.054l-5.125,2.742Z" style="fill:#62322d;fill-rule:nonzero;"/><path d="M1497,1215.01c-5.958,-21.775 -10.083,-44.288 -12.375,-67.005l5.792,-0.579c2.25,22.35 6.333,44.596 12.25,66l-5.584,1.529l-0.083,0.055Z" style="fill:#62322d;fill-rule:nonzero;"/><path d="M1466.75,1154.23c-3.25,0 -6.583,-0.266 -9.875,-0.792c-21.596,-3.429 -34.525,-7.8 -58.425,-25.725l3.471,-4.641c22.587,16.975 34.275,21.191 55.829,24.671c20.167,3.216 40.208,-5.375 59.667,-13.655l5.791,-2.475c6.042,-2.533 12,-4.9 18.542,-5.587c7.625,-0.792 14.75,1.104 19.625,5.221l-3.708,4.429c-3.709,-3.113 -9.209,-4.538 -15.292,-3.904c-5.75,0.579 -11.208,2.791 -16.833,5.166l-5.834,2.48c-17.083,7.325 -34.666,14.812 -52.916,14.812l-0.042,0Z" style="fill:#62322d;fill-rule:nonzero;"/><path d="M1299.02,979.833c9.616,0 17.396,-10.408 17.396,-23.245c0,-12.842 -7.78,-23.25 -17.396,-23.25c-9.575,0 -17.359,10.408 -17.359,23.25c0,12.837 7.784,23.245 17.359,23.245Z" style="fill:#62322d;fill-rule:nonzero;"/><path d="M1261.35,962.383c4.788,0 8.696,-3.891 8.696,-8.696c0,-4.804 -3.908,-8.699 -8.696,-8.699c-4.787,0 -8.7,3.895 -8.7,8.699c0,4.805 3.913,8.696 8.7,8.696Z" style="fill:#62322d;fill-rule:nonzero;"/><path d="M1336.73,962.383c4.788,0 8.696,-3.891 8.696,-8.696c0,-4.804 -3.908,-8.699 -8.696,-8.699c-4.792,0 -8.7,3.895 -8.7,8.699c0,4.805 3.908,8.696 8.7,8.696Z" style="fill:#62322d;fill-rule:nonzero;"/><path d="M1299.05,921.688c4.792,0 8.663,-3.892 8.663,-8.696c0,-4.804 -3.871,-8.7 -8.663,-8.7c-4.825,0 -8.696,3.896 -8.696,8.7c0,4.804 3.871,8.696 8.696,8.696Z" style="fill:#62322d;fill-rule:nonzero;"/><path d="M1299.05,1014.63c4.792,0 8.663,-3.895 8.663,-8.7c0,-4.804 -3.871,-8.7 -8.663,-8.7c-4.825,0 -8.696,3.896 -8.696,8.7c0,4.805 3.871,8.7 8.696,8.7Z" style="fill:#62322d;fill-rule:nonzero;"/><path d="M1299.17,1295.05c-1.354,0 -2.671,-0.054 -4.029,-0.208c-17.954,-1.792 -34.833,-8.488 -49.238,-14.605l2.234,-5.329c14.046,5.958 30.404,12.5 47.521,14.188c17.837,1.737 35.875,-10.65 44.97,-18.246l3.671,4.483c-9.137,7.592 -26.696,19.717 -45.208,19.717l0.079,0Z" style="fill:#62322d;fill-rule:nonzero;"/><path d="M1375.63,1541.45c-2.396,-0.633 -4.75,-1.321 -7.225,-1.737c-22.783,-3.742 -46.167,-1.425 -68.75,0.841l-0.796,0c-1.637,0.213 -2.916,-0.579 -3.712,-1.316c-1.396,-1.321 -2.354,-3.217 -2.354,-4.954c-0.279,-21.667 -6.067,-43.23 -16.679,-62.425c-19.513,-35.159 -52.471,-59.359 -90.417,-66.263c-38.704,-7.121 -81,4.267 -110.609,29.517c-1.716,1.533 -4.35,2.008 -6.504,1.321c-1.154,-0.421 -2.712,-1.371 -3.191,-3.588l-1.396,-7.062c-4.708,-22.613 -9.854,-48.234 -28.092,-64.525c-19.871,-17.875 -54.187,-20.513 -74.817,-5.696c-2.512,1.791 -4.745,0.212 -5.624,-0.525c-1.755,-1.638 -2.792,-4.534 -1.438,-6.859c12.013,-20.662 17.758,-44.858 16.563,-69.85c-1.917,-38.537 -20.871,-73.229 -50.559,-94.104c-3.55,-2.425 -7.262,-4.746 -11.171,-6.746c-0.837,-0.579 -1.795,-1.054 -2.754,-1.529c-9.375,-4.691 -19.191,-8.121 -29.208,-10.283c-19.804,-4.479 -40.45,-4.059 -59.879,1.162c-8.217,2.163 -16.271,5.271 -23.963,9.121c-3.683,1.896 -7.262,3.954 -10.791,6.167c-2.109,1.371 -3.951,0.946 -5.113,0.367c-2.104,-1.05 -3.579,-3.317 -3.737,-5.692c0,-0.425 -0.05,-0.792 -0.155,-1.213c-0.162,-2.691 -0.425,-5.271 -0.791,-7.908c-0.421,-3.688 -1,-7.325 -1.742,-11.017c-2.733,-14.921 -7.317,-29.525 -13.425,-43.283c-3.688,-8.121 -7.846,-16.079 -12.533,-23.567c-20.692,-33.633 -51.129,-60.204 -86.413,-73.175c-58.558,-21.454 -126.121,-7.483 -167.983,34.642c-3.158,3.158 -6.109,6.483 -8.846,9.962c-2.525,3.163 -4.896,6.43 -7.108,9.805c-17.484,26.625 -25.542,59.783 -22.959,91.837c0.421,5.904 1.209,11.808 2.421,17.554c2.529,12.229 6.638,24.146 12.533,35.163c16.063,30.104 44.342,52.137 75.513,58.833c32.279,7.017 66.037,-5.637 83.833,-31.312c10.059,-14.55 13.692,-36.059 8.792,-52.455c-0.733,-2.375 -1.579,-4.691 -2.738,-6.75c-2.104,-4.325 -4.841,-8.066 -8.216,-11.175c-0.788,-0.737 -1.629,-1.425 -2.575,-2.112c-2.529,-1.95 -5.371,-3.583 -8.479,-4.846c-11.642,-4.692 -26.171,-2.954 -36.125,4.371c-0.579,0.425 -1.05,0.846 -1.579,1.321c-0.159,0.054 -0.213,0.158 -0.263,0.266c-3.475,3.005 -6.108,6.746 -7.637,10.805c-0.526,1.37 -0.946,2.795 -1.159,4.325c-0.262,2.108 -1.104,9.066 3.213,12.387c2.158,1.633 6.266,1.742 8.687,0.158c1.896,-1.158 2.684,-3.108 2.213,-5.27c-0.471,-2.163 1.525,-2.742 1.737,-2.742c0.629,-0.213 2.004,-0.263 2.529,1.425c1.788,6.058 -2.316,10.383 -6.425,12.229c-4.845,2.317 -9.054,1.95 -12.587,-1.054c-5.108,-4.325 -7.792,-13.975 -6.104,-21.613c0,-0.425 0.154,-0.791 0.208,-1.162c2.371,-8.646 8.688,-16.079 17.113,-20.875c4,-2.217 8.479,-3.954 13.22,-4.904c12.584,-2.534 22.592,0.05 30.067,4.058l0.054,0c3.213,1.742 5.95,3.746 8.213,5.692c1.895,1.583 3.583,3.325 5.162,5.166c0.738,0.792 1.421,1.638 2.104,2.53c2.688,3.379 4.9,7.12 6.688,11.179c3.954,8.646 5.9,18.346 5.529,28.154c-1.158,28.887 -20.379,54.933 -50.129,68.112l-5.896,2.584l6.158,1.529c16.48,4.058 31.171,10.387 43.867,18.554c-3.162,1.796 -6.321,3.692 -9.375,5.696c-17.167,-8.329 -36.021,-13.813 -56.346,-15.5c-5.95,-0.633 -12.058,-1.163 -18.429,-1.163c-33.862,-0.262 -64.983,9.438 -91.996,28.896c-26.854,19.292 -48.396,47.184 -60.716,78.446c-22.542,57.25 -14.588,124.521 20.641,175.604c20.013,29.05 48.975,50.346 81.675,59.996c36.704,10.963 77.567,6.483 112.009,-12.179c2,-1 4.054,-0.367 5.158,0.583c0.629,0.525 2.108,2 1.367,4.371c-5.842,20.613 -2.209,44.392 10.004,65.267c18.116,30.891 54.187,54.146 93.996,60.837c35.441,5.909 69.304,-2.316 92.737,-22.562c1.421,-1.163 3.579,-1.579 5.371,-1c1.316,0.421 2.104,1.371 2.371,2.791c5.266,26.15 31.437,47.238 55.012,56.467c18.433,7.271 38.304,11.017 57.417,11.017c5.666,0 11.212,-0.267 16.679,-0.95c38.546,-4.746 72.1,-28.575 88.9,-61.788l0.521,0c-4.95,10.492 -8.779,21.459 -11.213,32.896c-20.708,21.829 -49.279,36.221 -80.52,39.379c-27.334,2.742 -55.746,-2.208 -80.125,-13.966c-18.817,-9.125 -42.459,-27.309 -52.467,-51.088l-1.054,-2.583l-2.209,1.637c-13.8,10.279 -30.7,17.079 -48.921,19.663c-35.174,5.062 -76.566,-5.379 -107.895,-27.309l-3.109,-2.108l-0.366,3.688c-1.955,19.087 -9.009,37.329 -20.275,52.775c-22.755,31.208 -59.35,51.35 -100.425,55.3c-20.43,2.008 -42.234,-1.055 -64.717,-9.067c-12.375,-4.375 -24.225,-9.963 -35.229,-16.5c-9.059,-5.375 -17.063,-11.758 -25.75,-18.871l-1.525,-1.212l-1.371,1.366c-11.267,10.967 -25.488,19.825 -41.917,26.309c-31.962,12.6 -68.612,13.025 -100.629,1.212c-8.691,-3.217 -16.854,-7.329 -24.433,-12.229c-0.054,-1.95 -0.054,-3.904 -0.159,-5.746c-0.054,-1.95 -0.054,-3.904 -0.212,-5.854c0.05,0.05 0.158,0.05 0.212,0.158c48.13,33.896 121.221,28.1 164.821,-14.812c1.792,-1.792 4.738,-1.792 6.688,0.05c17.746,16.504 43.391,30.1 72.141,38.329c12.955,3.687 25.963,5.533 38.863,5.533c24.175,0 47.604,-6.483 68.512,-19.083c32.805,-19.875 52.813,-51.875 54.867,-87.779c0,-0.367 0.054,-0.734 0.163,-1.004l0.208,-1.317l-0.846,-0.788c-26.112,-23.987 -38.492,-54.512 -34.962,-86.037l0.525,-3.9l-3.58,1.629c-5.895,2.8 -11.954,5.171 -17.904,7.121c-41.6,13.442 -87.887,7.854 -127.116,-15.396c-31.967,-19.033 -56.771,-48.396 -71.567,-84.825c-29.117,-71.646 -13.321,-156.625 39.496,-211.454c23.537,-24.408 52.5,-41.125 84.041,-48.396l6.638,-1.529l-6.267,-2.692c-15.854,-6.641 -30.487,-16.871 -42.441,-29.471c-16.85,-17.87 -28.646,-40.695 -34.021,-66.158l-0.263,-1.317l-1.312,-0.37c-3.217,-0.846 -6.429,-1.634 -9.483,-2.217c-15.85,-3.321 -30.805,-3.583 -44.601,-0.842c-13.008,2.425 -25.17,7.484 -36.283,15.288c-28.329,19.716 -42.862,53.879 -38.862,91.15c0.158,1.212 -0.263,2.212 -1.371,2.954c-1.421,0.95 -3.579,1.158 -5.05,0.421c-19.117,-9.963 -40.021,-14.021 -60.929,-12.809c-2.688,0.155 -5.267,0.367 -7.9,0.63c0.054,-2.688 0.208,-5.271 0.158,-7.855l0,-0.579c2.579,-0.262 5.162,-0.525 7.796,-0.579c18.796,-1 37.542,1.95 55.183,9.279l3.163,1.317l-0.163,-3.375c-0.525,-15.179 1.742,-29.363 6.638,-42.121c9.216,-23.933 27.537,-42.858 49.712,-54.3c23.904,-12.337 52.234,-15.925 78.25,-7.487l3.213,1.054l-0.421,-3.375c-0.213,-1.9 -0.367,-3.792 -0.425,-5.692c-3,-39.329 8.587,-78.55 32.017,-108.392c29.07,-36.85 76.779,-58.358 125.595,-59.783c22.959,-0.792 46.125,2.9 67.717,11.388c11.954,4.691 23.329,10.754 33.967,18.029c24.908,16.871 45.758,40.066 60.875,67.112c2.158,3.796 4.158,7.8 6.054,11.754c0.05,0.055 0.05,0.163 0.05,0.267c1.95,3.9 3.687,7.908 5.266,11.967c5.321,13.125 9.271,26.883 11.796,41.071c0.425,2.529 0.846,5.058 1.213,7.637l0.421,3.008l2.741,-1.37c8.317,-4.271 17.267,-7.646 26.484,-9.963c12.325,-3.217 25.171,-4.692 38.283,-4.325c8.796,0.213 17.442,1.321 25.821,3.113c10.733,2.316 21.029,5.854 30.683,10.437c0.159,0.05 0.279,0.158 0.438,0.213c1.996,1 4.033,2 5.946,3.108c0.358,0.208 0.72,0.421 1.037,0.633c1.317,0.738 2.596,1.425 3.912,2.213c0.838,0.529 1.717,1.054 2.555,1.741c0.395,0.155 0.758,0.367 1.075,0.63c17.996,11.654 32.758,27.575 42.654,46.658c18.516,35.742 20.95,78.658 6.425,114.717l-1.633,4.062l4.145,-1.058c21.588,-5.375 47.525,-0.525 64.442,12.337c21.629,16.292 29.092,43.334 34.396,67.429l0.758,3.163l2.675,-1.896c16.517,-11.758 34.913,-19.721 54.504,-23.779c43.455,-8.908 87.267,1.633 120.425,28.942c30.246,24.937 49.517,61.787 52.667,101.062l0.2,2.217l2.238,-0.213c20.266,-2.004 43.85,-3.741 66.754,0.584c0.358,4.583 0.795,9.12 1.516,13.704l0.121,0.158Z" style="fill:#62322d;fill-rule:nonzero;"/><path d="M307.388,1454.68c-7.163,-28.837 -34.755,-48.766 -62.93,-45.233c-3.054,0.367 -5.95,1.054 -8.845,1.896c0.312,2.375 0.679,4.691 0.945,7.008c3.792,-1.263 7.688,-2.208 11.9,-2.421c14.009,-0.792 28.067,4.534 37.55,14.183c17.53,17.817 20.113,45.596 6.58,70.746c-11.217,20.825 -32.175,35.692 -57.609,40.804c-0.208,0 -0.421,0.055 -0.633,0.105c-0.213,3.325 -0.421,6.591 -0.579,9.912l0,1.213c15.696,-2.896 30.487,-9.225 43.02,-18.925c25.23,-19.455 37.551,-51.35 30.601,-79.346l0,0.058Z" style="fill:#62322d;fill-rule:nonzero;"/><path d="M1939.08,1498.53c0.417,0 0.917,0 1.375,-0.05l0.709,0c1.375,0 2.708,-0.108 4.041,0c0.75,0 1.5,0.154 2.292,0.209c-38.708,-11.705 -75.583,-27.255 -99.417,-60.096c-9.625,-13.392 -16,-35.746 -23.291,-61.634c-18.417,-65.425 -43.667,-154.995 -151.167,-147.191c-1.708,0.104 -2.958,1.583 -2.833,3.271c0.083,1.687 1.708,2.95 3.208,2.791c102.708,-7.433 126,75.867 144.875,142.763c7.458,26.466 13.917,49.35 24.292,63.579c21.583,29.738 52.875,45.763 86.708,57.308c2.917,-0.525 5.958,-0.791 9.208,-0.895l0,-0.055Z" style="fill:#62322d;fill-rule:nonzero;"/><path d="M1798,1301.16l-1.625,-0.425c1.792,3.217 3.333,6.484 4.75,9.804l1.458,0.371c-1.458,-3.216 -2.958,-6.537 -4.583,-9.7l0,-0.05Zm0,0l-1.625,-0.425c1.792,3.217 3.333,6.484 4.75,9.804l1.458,0.371c-1.458,-3.216 -2.958,-6.537 -4.583,-9.7l0,-0.05Zm-74.25,-61.737c-10.958,-3.321 -23.375,-5.117 -37.208,-5.117c-2.334,0 -4.834,0.058 -7.292,0.163l-0.667,0c0,0 0.167,0.05 0.209,0.05l0.416,0l7.417,0.845l1.167,0c1.958,0 3.791,0.055 5.666,0.155c0.209,0 0.417,0 0.625,0.058c1.084,0 2.167,0.05 3.25,0.208c4.25,0.263 8.25,0.792 12.209,1.425c0.541,0.05 1.125,0.159 1.708,0.263c0.625,0.158 1.208,0.262 1.792,0.371c1.166,0.208 2.25,0.525 3.375,0.737l0.25,0c1.416,0.367 2.75,0.629 4.083,1.054c0.208,0 0.5,0.05 0.708,0.154c0.292,0.059 0.542,0.159 0.792,0.213c0.167,0.054 0.292,0.054 0.458,0.158c1.542,0.425 3.084,0.95 4.584,1.425c1.708,0.579 3.458,1.213 5.083,1.896c3.542,1.371 6.875,2.954 10.208,4.692c0.875,0.529 1.75,0.95 2.542,1.529c6.417,3.587 12.208,7.858 17.458,12.654c0.834,0.792 1.667,1.529 2.459,2.321c0.041,0 0.166,0.05 0.166,0.154c0.042,0.108 0.167,0.163 0.209,0.213c0.083,0.05 0.25,0.212 0.291,0.262c0.209,0.213 0.5,0.425 0.709,0.738c1.333,1.32 2.583,2.587 3.75,4.062c0.541,0.421 0.833,0.842 1.333,1.371c1.583,1.737 3.125,3.587 4.542,5.483c1,1.317 2,2.584 2.958,3.954c1,1.371 1.917,2.738 2.875,4.113l1.583,0.417c-13.791,-21.192 -32.666,-38.113 -59.708,-46.021Zm224.083,258.166c-5.416,-1.583 -10.791,-3.325 -16.125,-5.166c-31.5,-10.754 -61.958,-25.779 -82.75,-54.459c-6.291,-8.645 -11.083,-21.087 -15.708,-35.954c-2.5,-7.908 -4.917,-16.504 -7.458,-25.571c0,0 -0.042,-0.05 -0.084,-0.158c-4.541,-16.554 -9.75,-34.692 -16.5,-52.454c-1.625,-4.325 -3.375,-8.596 -5.291,-12.758c-1.417,-3.213 -2.917,-6.43 -4.459,-9.596c-2.291,-4.692 -4.75,-9.225 -7.5,-13.6c-11.375,-18.925 -26.25,-35.429 -46.541,-46.234c-15.959,-8.487 -35.25,-13.554 -58.875,-13.554c-2.167,0 -4.292,0.059 -6.5,0.163c-0.375,0 -0.75,0 -1.084,0.05c-0.375,0 -0.708,0 -1.041,0.054c-1.292,0 -2.667,0.054 -4,0.208l-0.25,0c0,0 -0.167,0 -0.209,0.054c-0.375,0 -0.75,0.055 -1.083,0.267c-0.5,0.154 -0.917,0.421 -1.333,0.792c-0.167,1.629 -0.375,3.371 -0.584,5.058c0.209,0.421 0.542,0.788 0.834,1.054l0.041,0c0.292,0.263 0.625,0.529 1,0.634c0.584,0.262 1.209,0.366 1.917,0.262c0.833,-0.05 1.708,-0.158 2.542,-0.158c0.375,0 0.791,-0.054 1.083,-0.054c0.333,0 0.708,0 1.042,-0.05c2.583,-0.05 5.125,-0.159 7.625,-0.159c46.125,0 74.541,20.034 93.75,48.029c3,4.48 5.833,9.063 8.458,13.917c1.833,3.371 3.542,6.85 5.167,10.279c1.958,4.167 3.791,8.434 5.541,12.759c6.625,16.554 11.834,33.9 16.5,50.558c0.625,2.162 1.167,4.375 1.875,6.533l0.125,0.534c1.917,6.637 3.75,13.016 5.584,19.133c5.458,18.292 11,33.796 18.833,44.6c19.875,27.521 47.833,42.65 72.875,52.454c4.917,1.95 9.708,3.692 14.333,5.275l0.292,0l0.208,0.054c2.792,-0.529 5.875,-0.791 9.084,-0.95l1.791,0l0.625,-0.054c1.167,0 2.375,-0.05 3.584,0c0.375,0 0.75,0.054 1.166,0.158c0.375,0 0.709,0.055 1.042,0.055l9.625,0.629l-9.167,-2.792l0,0.158Zm-8.833,-0.158c-3.208,0.05 -6.25,0.421 -9.083,0.842c-3.625,-1.213 -7.292,-2.584 -11.084,-3.954c-25.5,-9.7 -54.416,-24.775 -74.708,-52.875c-7.458,-10.175 -12.917,-24.83 -18.083,-42.284c-2,-6.637 -3.959,-13.704 -6.042,-20.979l-0.167,-0.262c-0.416,-1.584 -0.916,-3.217 -1.375,-4.855c-4.708,-16.708 -9.833,-34.266 -16.5,-51.083c-1.708,-4.325 -3.5,-8.592 -5.458,-12.758c-1.5,-3.479 -3.125,-6.746 -4.917,-10.067c-2.5,-4.75 -5.25,-9.437 -8.208,-13.812c-13.75,-21.192 -32.625,-38.121 -59.667,-46.025c-11,-3.325 -23.375,-5.117 -37.208,-5.117c-2.333,0 -4.833,0.054 -7.292,0.162l-0.666,0c0,0 -0.25,0.05 -0.5,0.05c-0.417,0 -0.75,0 -1.084,0.055c-1,0 -2,0.05 -3,0.158c-0.5,0.05 -1,-0.158 -1.333,-0.425c-0.458,-0.421 -0.667,-0.842 -0.75,-1.371c-0.042,-0.792 0.333,-1.579 1.042,-1.896l0.041,0c0,0 0.417,-0.212 0.667,-0.212l0.375,0c1.167,-0.05 2.333,-0.159 3.5,-0.209c0.375,0 0.75,-0.054 1.042,-0.054c0.333,0 0.75,0 1.041,-0.05c23.459,-0.846 42.709,3.004 58.834,10.488c22.083,10.016 38.083,26.571 50.166,46.025c2.792,4.479 5.334,9.016 7.667,13.704c1.75,3.217 3.333,6.487 4.75,9.808c1.875,4.167 3.708,8.438 5.292,12.654c6.875,17.45 12,35.43 16.708,51.98c0.208,0.737 0.375,1.37 0.583,2.112c2.375,8.325 4.584,16.342 6.875,23.771c4.917,15.712 10,28.946 16.584,38.171c20.125,27.783 49.083,43.075 79.291,53.775c4.417,1.579 8.875,3.004 13.25,4.375c-0.25,0.054 -0.541,0.054 -0.75,0.054l0.167,0.104Z" style="fill:#62322d;fill-rule:nonzero;"/><path d="M1675.75,1176.37c0,82.296 -25.583,158.525 -69.042,221.104c2.375,0.425 4.792,0.95 7.084,1.475c43.166,-63.208 68.625,-139.913 68.625,-222.579c0.041,-215.517 -171.834,-390.859 -383.2,-390.909c-209.367,-0.058 -379.984,171.967 -383.254,384.688c2.191,1.158 4.429,2.321 6.541,3.583c1.359,-210.662 169.821,-381.579 376.713,-381.525c207.7,0.05 376.616,172.392 376.533,384.163Z" style="fill:#62322d;fill-rule:nonzero;"/><path d="M925.538,1089.22c-0.838,3.688 -1.638,7.433 -2.355,11.175c-0.6,3.004 -1.079,6.067 -1.595,9.071c0.358,0.204 0.637,0.525 0.958,0.787c1.154,-7.22 2.512,-14.391 4.15,-21.458c-0.363,0.213 -0.721,0.371 -1.158,0.425Zm0,0c-0.838,3.688 -1.638,7.433 -2.355,11.175c-0.6,3.004 -1.079,6.067 -1.595,9.071c0.358,0.204 0.637,0.525 0.958,0.787c1.154,-7.22 2.512,-14.391 4.15,-21.458c-0.363,0.213 -0.721,0.371 -1.158,0.425Zm0,0c-0.838,3.688 -1.638,7.433 -2.355,11.175c-0.6,3.004 -1.079,6.067 -1.595,9.071c0.358,0.204 0.637,0.525 0.958,0.787c1.154,-7.22 2.512,-14.391 4.15,-21.458c-0.363,0.213 -0.721,0.371 -1.158,0.425Zm0,0c-0.838,3.688 -1.638,7.433 -2.355,11.175c-0.6,3.004 -1.079,6.067 -1.595,9.071c0.358,0.204 0.637,0.525 0.958,0.787c1.154,-7.22 2.512,-14.391 4.15,-21.458c-0.363,0.213 -0.721,0.371 -1.158,0.425Zm0,0c-0.838,3.688 -1.638,7.433 -2.355,11.175c-0.6,3.004 -1.079,6.067 -1.595,9.071c0.358,0.204 0.637,0.525 0.958,0.787c1.154,-7.22 2.512,-14.391 4.15,-21.458c-0.363,0.213 -0.721,0.371 -1.158,0.425Zm751.42,145.346c0,0.371 -0.041,0.737 -0.166,1.054c0,0.367 -0.042,0.742 -0.125,1.054c-0.875,5.746 -1.875,11.442 -3.084,17.134c0.334,0 0.709,0.054 1.042,0.162c1.167,-5.75 2.167,-11.55 3.083,-17.346c0.042,-0.371 0.167,-0.637 0.167,-1.004c0.042,-0.371 0.167,-0.792 0.167,-1.158c-0.375,0 -0.75,0 -1.084,0.05l0,0.054Zm5.875,-80.658c-0.375,-6.696 -0.833,-13.342 -1.583,-19.875c-1,-9.438 -2.333,-18.717 -3.958,-27.892c-1,-5.696 -2.084,-11.279 -3.375,-16.871c-2.5,-11.596 -5.625,-22.983 -9.209,-34.158c-50.125,-156.996 -195.041,-270.821 -365.491,-270.875l-0.079,0c-101.392,0 -197.155,40.125 -269.617,112.929c-9.617,9.7 -18.792,19.875 -27.254,30.362c-5.904,7.275 -11.609,14.763 -16.917,22.459c-3.312,4.691 -6.462,9.491 -9.458,14.341c-6.342,9.963 -12.167,20.188 -17.517,30.63c-3.071,5.904 -5.946,11.858 -8.658,17.925l-0.079,0c-3.792,8.591 -7.3,17.187 -10.455,25.987c-1.995,5.379 -3.908,10.863 -5.625,16.346c-3.591,11.175 -6.662,22.458 -9.137,34.004c-1.517,6.483 -2.796,13.021 -3.871,19.663c-1.596,9.225 -2.792,18.454 -3.712,27.783c-0.638,5.692 -1.075,11.387 -1.355,17.133c-0.279,4.746 -0.441,9.596 -0.52,14.392c-0.08,0.579 -0.08,1.162 -0.08,1.742l0,0.737l0.638,0.263c1.637,0.845 3.112,1.583 4.392,2.375c0.716,0.366 1.354,0.737 1.991,1.158l1.638,1.054l0,-2.108c1.396,-209.717 169.941,-380.317 375.554,-380.317l0.042,0c207.112,0.054 375.612,171.917 375.529,383.167c0,18.025 -1.209,35.846 -3.709,53.454c-0.25,1.633 -0.458,3.371 -0.666,5.058c-8.25,54.354 -27.959,106.234 -58.334,152.675c-1.958,3.113 -4.041,6.171 -6.166,9.279l-0.417,0.634l-0.542,0.737l1.625,0.367c0.459,0.058 0.792,0.162 1.25,0.212l0.042,0c1.917,0.371 3.792,0.792 5.708,1.213l0.75,0.212l0.417,-0.633c1.75,-2.529 3.375,-5.058 4.958,-7.537c12.584,-19.242 23.334,-39.38 32.25,-60.363c3.709,-8.646 7.084,-17.45 10.042,-26.358c1.917,-5.484 3.708,-10.967 5.333,-16.559c3.334,-11.279 6.125,-22.77 8.459,-34.42c1.208,-5.855 2.208,-11.813 3.083,-17.717c0.083,-0.367 0.167,-0.629 0.167,-1.004c0.166,-0.367 0.166,-0.629 0.166,-1c0,0 0.042,-0.05 0.084,-0.154c0.208,-1.321 0.375,-2.692 0.5,-3.955c0.166,-0.37 0.166,-0.737 0.166,-1.058c0.167,-0.367 0.167,-0.737 0.167,-1.054c1,-7.221 1.792,-14.496 2.333,-21.825c0.375,-5.696 0.792,-11.388 0.875,-17.133c0.125,-4.321 0.167,-8.646 0.167,-12.971c0,-7.538 -0.167,-14.971 -0.583,-22.454l0.041,0Zm-2.666,52.666c-0.625,7.325 -1.334,14.6 -2.334,21.875c0,0.371 -0.083,0.742 -0.166,1.054c0,0.371 -0.042,0.738 -0.125,1.055c-0.167,1.162 -0.292,2.216 -0.584,3.375c0,0.212 0,0.366 -0.041,0.579c0,0.371 -0.042,0.737 -0.167,1.054c0,0.371 -0.042,0.737 -0.125,1.058c-0.875,5.746 -1.875,11.438 -3.125,17.134c-2.208,11.595 -5.042,23.033 -8.417,34.266c-1.583,5.484 -3.333,10.967 -5.166,16.342c-3,8.908 -6.417,17.712 -10.209,26.362c-8.833,20.821 -19.458,40.855 -32.083,59.992c-1.417,2.321 -2.958,4.588 -4.458,6.854c-1.5,-0.371 -3.167,-0.737 -4.709,-1c1.792,-2.691 3.584,-5.329 5.334,-8.071c12.75,-19.345 23.583,-39.75 32.458,-60.941c3.167,-7.538 6.125,-15.184 8.792,-22.825c2.458,-7.013 4.708,-13.971 6.541,-21.038c2.542,-8.487 4.709,-17.083 6.459,-25.725c0.166,-0.054 0.166,-0.212 0.166,-0.262c1.5,-7.067 2.792,-14.129 3.917,-21.25c0.042,-0.367 0.167,-0.788 0.167,-1.213l0.208,-1.054c0.167,-1.05 0.292,-2.162 0.375,-3.212l0.042,0c0.041,-0.371 0.166,-0.742 0.166,-1.163c0.042,-0.367 0.167,-0.737 0.167,-1.158c2.375,-17.188 3.5,-34.688 3.5,-52.35c0.042,-212.409 -169.333,-385.217 -377.654,-385.325l-0.042,0c-206.329,0 -375.354,170.6 -377.746,380.683c-0.52,-0.262 -1,-0.579 -1.516,-0.842c-0.959,-0.525 -1.954,-1 -2.792,-1.425c0.079,-4.904 0.279,-9.804 0.596,-14.708c0.242,-6.271 0.721,-12.437 1.358,-18.658l0.038,0c0.8,-8.7 1.958,-17.296 3.475,-25.834c1.154,-7.22 2.55,-14.391 4.187,-21.458c2.354,-10.808 5.267,-21.458 8.579,-31.896c1.875,-6.062 3.95,-12.125 6.105,-18.029c3.112,-8.225 6.304,-16.287 9.937,-24.196c2.95,-6.541 6.063,-13.025 9.375,-19.458c5.108,-9.854 10.654,-19.504 16.638,-28.942c3.312,-5.271 6.745,-10.437 10.375,-15.55c4.95,-7.275 10.295,-14.341 15.883,-21.191c8.617,-10.755 17.833,-20.988 27.612,-30.842c71.98,-72.388 167.188,-112.188 268.059,-112.188l0.037,0c169.788,0 314.079,113.555 363.663,270.08c3.458,10.595 6.291,21.404 8.875,32.42c1.333,5.959 2.5,12.021 3.583,18.138c1.542,8.7 2.75,17.504 3.708,26.412c0.792,6.905 1.375,13.971 1.75,21.034c0.375,7.225 0.542,14.5 0.542,21.775c0,4.166 0,8.275 -0.167,12.387c-0.166,5.959 -0.541,11.863 -0.958,17.767l-0.083,0.108Z" style="fill:#62322d;fill-rule:nonzero;"/><path d="M1882.58,1720.8c12,-20.662 17.75,-44.808 16.5,-69.8c-1.791,-37.212 -19.625,-71.012 -47.666,-91.992c-2.917,-2.212 -5.917,-4.321 -9.084,-6.166c-2.541,-1.53 -5.041,-2.954 -7.666,-4.271c-39.542,-19.875 -87.084,-17.504 -123.834,6.167c-2.125,1.37 -3.958,0.95 -5.083,0.266c-2.125,-1.004 -3.625,-3.325 -3.75,-5.642c-5.333,-71.437 -52.667,-137.333 -115,-160.162c-58.542,-21.454 -126.125,-7.537 -168,34.638c-41.379,41.7 -51.633,112.341 -23.942,164.27c16.042,30.105 44.334,52.088 75.484,58.838c32.291,7.008 66.041,-5.646 83.791,-31.317c10.084,-14.554 13.709,-36.058 8.792,-52.454c-3.542,-11.862 -11.125,-20.458 -22,-24.829c-11.625,-4.696 -26.167,-2.954 -36.125,4.371c-5.667,4.166 -9.583,10.283 -10.625,16.716c-0.292,2.105 -1.083,9.063 3.208,12.388c2.125,1.633 6.25,1.742 8.667,0.154c1.917,-1.158 2.667,-3.162 2.25,-5.271c-0.458,-2.162 1.5,-2.737 1.708,-2.791c0.625,-0.159 2,-0.263 2.5,1.529c1.834,6.058 -2.291,10.387 -6.416,12.229c-4.834,2.317 -9.042,1.9 -12.542,-1.054c-5.417,-4.534 -8.083,-14.971 -5.917,-22.775c3.542,-12.654 15.459,-22.829 30.334,-25.779c18.041,-3.692 30.875,3.216 38.333,9.7c12.75,10.808 20.208,28.783 19.458,47.025c-1.125,28.891 -20.333,54.933 -50.083,68.112l-5.917,2.583l6.167,1.534c11.583,2.791 22.167,6.85 31.958,11.754c-2.916,2.579 -5.708,5.321 -8.333,8.121c-2.167,-0.584 -4.125,-1.375 -6.292,-1.9c-17.125,-6.646 -36.583,-10.23 -57.5,-10.388c-33.879,-0.262 -65.004,9.438 -92.016,28.888c-26.855,19.295 -48.4,47.187 -60.692,78.45c-22.542,57.254 -14.604,124.52 20.629,175.608c19.992,29.05 48.963,50.346 81.679,59.992c36.692,10.862 77.567,6.483 111.984,-12.175c2,-1.055 4.041,-0.371 5.166,0.525c0.625,0.583 2.125,2.004 1.375,4.375c-5.833,20.666 -2.208,44.445 10,65.32c18.125,30.892 54.167,54.142 94,60.838c35.459,5.904 69.334,-2.317 92.75,-22.563c1.417,-1.212 3.584,-1.637 5.375,-1.004c1.334,0.425 2.084,1.375 2.334,2.796c5.291,26.15 31.458,47.184 55.041,56.463c18.417,7.275 38.25,11.016 57.417,11.016c5.667,0 11.208,-0.262 16.667,-1c46.25,-5.641 85.166,-38.75 96.916,-82.4c11.292,-41.858 -0.5,-96.212 -44.958,-119.2c-23.375,-12.125 -50.5,-12.654 -70.917,-1.529c-19.5,10.65 -32.875,32.425 -33.208,54.146c-0.208,13.017 4.542,25.779 12.792,34.162c6.5,6.638 14.958,10.175 24.291,10.175l0.417,0c12.292,-0.158 23.625,-8.491 26.875,-19.933c1.792,-6.167 1.208,-14.333 -5.792,-16.762c-2.958,-1 -6.375,-0.788 -8.833,0.579c-1.958,1.054 -3.208,2.741 -3.75,4.854c-0.542,2.371 -2.542,2 -3.208,1.896c-1.125,-0.213 -2.959,-1.317 -2.334,-3.534c1.084,-4.375 4.042,-7.8 8.417,-9.487c5.5,-2.113 12.167,-1.317 16.875,2.004c4.25,2.9 6.708,7.063 7.25,12.388c0.875,7.854 -2.667,17.554 -8.75,24.041c-10.375,11.067 -22.417,12.229 -30.667,11.279c-14.333,-1.737 -27.875,-11.016 -35.541,-24.25c-13.792,-24.037 -5.25,-53.35 9.25,-71.804c16.916,-21.404 44.708,-31.104 74.416,-25.987c28.125,4.846 53.209,22.558 67.167,47.337c12.792,22.88 17.417,51.3 13,80.03c-1,6.429 -2.583,12.916 -4.708,19.241l-0.542,1.371l1.083,0.95c18.875,16.975 35.209,27.204 52.875,33.054c20.459,6.75 42.042,8.804 62.459,5.75c48.166,-7.017 78.458,-41.337 95.458,-68.908c1.542,-2.425 4.75,-3.321 7.042,-1.95l2.916,1.737c5.834,3.588 11.917,7.279 18.459,9.492l2.958,1.054c5.542,1.896 11.208,3.796 16.958,5.483c12.167,3.48 24.334,5.909 36.209,7.434c16.708,2.158 33.333,2.425 49.375,1.212c0,3.746 0.041,7.438 0.041,11.179c-4.833,0.367 -9.666,0.738 -14.666,0.788c-40.334,0.421 -78.959,-8.433 -111.417,-25.992l-1.75,-0.95l-1.083,1.638c-10.042,15.604 -21.459,28.941 -33.834,39.537c-27.166,23.146 -61.583,34.642 -96.916,32.317c-28.542,-1.792 -66.584,-13.704 -87.792,-41.488l-2.167,-2.795l-1.541,3.166c-18.667,38.325 -57.584,64.896 -101.542,69.271c-27.333,2.742 -55.75,-2.162 -80.125,-13.971c-18.833,-9.066 -42.458,-27.204 -52.458,-50.979l-1.125,-2.583l-2.209,1.633c-13.791,10.225 -30.666,17.083 -48.916,19.663c-35.167,5.062 -76.584,-5.375 -107.875,-27.309l-3.125,-2.158l-0.334,3.742c-2,19.029 -9.041,37.325 -20.291,52.72c-22.75,31.209 -59.375,51.4 -100.417,55.405c-20.446,2.004 -42.233,-1.05 -64.737,-9.063c-10.375,-3.692 -20.271,-8.333 -29.688,-13.554c-1.075,-1.05 -2.233,-2.163 -3.312,-3.163c0.758,-3.004 -11.292,-9.591 -10.65,-12.754c13.004,7.434 40.5,17.134 56.22,21.613c12.967,3.691 25.975,5.483 38.875,5.483c24.167,0 47.584,-6.433 68.5,-19.029c32.792,-19.875 52.834,-51.875 54.875,-87.779c0,-0.367 0.084,-0.738 0.167,-1.054l0.208,-1.213l-0.833,-0.842c-26.125,-23.937 -38.5,-54.462 -35,-85.987l0.542,-3.9l-3.542,1.633c-5.917,2.792 -12,5.167 -17.917,7.117c-41.625,13.442 -87.92,7.854 -127.145,-15.5c-31.959,-19.029 -56.738,-48.342 -71.542,-84.771c-29.129,-71.646 -13.325,-156.629 39.504,-211.458c23.5,-24.409 52.471,-41.171 84.029,-48.396l6.625,-1.529l-6.262,-2.688c-15.842,-6.641 -30.488,-16.871 -42.459,-29.471c-16.837,-17.87 -28.645,-40.75 -33.995,-66.158l-0.28,-1.321l-1.316,-0.371c-34.634,-9.487 -65.079,-5.375 -90.338,12.18c-28.329,19.716 -42.891,53.879 -38.862,91.15c0.158,1.216 -0.279,2.216 -1.396,2.954c-1.396,0.95 -3.554,1.158 -5.029,0.366c-52.271,-26.987 -117.867,-11.279 -159.567,38.221c-36.55,43.442 -47.204,103.804 -26.333,150.146c21.225,47.342 68.787,73.808 115.596,64.371c25.375,-5.117 46.362,-19.925 57.537,-40.75c13.604,-25.204 11.013,-52.929 -6.504,-70.804c-9.496,-9.646 -23.463,-14.975 -37.508,-14.179c-12.73,0.737 -23.821,6.27 -31.242,15.6c-4.113,5.166 -8.1,13.712 -7.104,22.091c0.6,4.954 2.912,9.229 6.741,12.175c3.755,3.009 10.017,5.117 15.284,3.113c4.15,-1.525 5.066,-4.321 5.266,-5.904c0.242,-2.688 -1.154,-5.534 -3.75,-7.275c-2.954,-2 -6.704,-2.163 -10.016,-0.371c-0.396,0.262 -0.754,0.058 -0.996,-0.209c-0.4,-0.529 -0.042,-0.845 0.079,-1c4.95,-5.116 10.933,-4.537 14.883,-2.212c4.55,2.683 8.221,8.483 6.105,15.708c-1.317,4.534 -4.346,7.696 -9.017,9.275c-6.983,2.429 -17.038,0.792 -23.421,-3.741c-12.729,-9.121 -12.329,-26.725 -5.308,-39.38c7.221,-12.97 21.946,-22.3 38.504,-24.354c28.092,-3.537 55.746,16.338 62.846,45.229c6.904,27.942 -5.346,59.838 -30.563,79.292c-22.866,17.658 -53.112,24.617 -82.958,18.925c-24.179,-4.533 -47.004,-18.558 -64.442,-39.537l-0.596,-0.638l-0.8,0c-3.47,-0.579 -6.662,-1.579 -10.212,-2.742c-4.308,-1.366 -8.779,-2.791 -13.729,-3.108c-8.896,-0.575 -17.675,0.633 -26.85,3.583c-13.529,4.38 -26.896,12.917 -39.863,25.205c-3.471,3.32 -6.704,6.85 -9.816,10.437c-2.675,-2.742 -5.346,-5.325 -8.18,-7.908c9.617,-11.175 20.83,-21.667 34.196,-29.471c12.209,-7.117 25.496,-11.388 39.463,-12.758c6.983,-0.738 14.204,-0.525 20.271,0.529l4.466,0.787l-2.154,-4.058c-28.129,-50.771 -19.471,-118.983 21.388,-169.596c40.541,-50.35 107.416,-69.483 162.479,-46.658l3.191,1.375l-0.158,-3.479c-0.558,-15.188 1.717,-29.317 6.621,-42.075c19.117,-49.763 77.771,-78.075 127.967,-61.788l3.191,1.004l-0.4,-3.321c-4.546,-41.279 6.984,-82.825 31.604,-114.083c42.655,-54.25 125.734,-75.021 193.275,-48.396c62.625,24.617 109.334,86.563 119.25,157.788l0.417,3.004l2.708,-1.371c19.584,-9.962 41.834,-14.917 64.709,-14.237c24.958,0.741 48.416,7.808 68.375,20.037c3.208,1.95 6.333,3.954 9.291,6.271c15.25,11.075 27.834,25.517 36.584,42.492c18.541,35.745 20.958,78.554 6.416,114.716l-1.625,3.954l4.167,-0.999c21.583,-5.375 47.5,-0.53 64.417,12.337c21.625,16.288 29.083,43.279 34.416,67.321l0.75,3.217l2.667,-1.9c16.542,-11.755 34.917,-19.717 54.542,-23.775c43.458,-8.909 87.291,1.583 120.416,28.891c30.25,24.988 49.542,61.788 52.667,101.113l0.208,2.216l2.25,-0.212c20.709,-2.108 44.834,-3.904 68.167,0.792c14.042,2.9 27.333,8.433 39.542,16.554c-0.792,4.904 -1.334,9.858 -1.917,14.758c-13.542,-10.279 -28.5,-16.921 -44.792,-19.612c-22.791,-3.792 -46.166,-1.421 -68.75,0.795l-0.791,0c-1.625,0.263 -2.875,-0.583 -3.667,-1.212c-1.458,-1.321 -2.417,-3.217 -2.417,-5.063c-0.208,-21.616 -6,-43.229 -16.666,-62.366c-19.459,-35.163 -52.417,-59.363 -90.417,-66.271c-38.708,-7.113 -81,4.275 -110.583,29.525c-1.75,1.529 -4.375,2.004 -6.542,1.321c-1.125,-0.425 -2.667,-1.375 -3.125,-3.588l-1.458,-7.062c-4.667,-22.617 -9.834,-48.242 -28.042,-64.58c-19.917,-17.875 -54.167,-20.458 -74.833,-5.695c-2.542,1.895 -4.709,0.262 -5.625,-0.525c-1.75,-1.588 -2.834,-4.484 -1.417,-6.859l0.208,0.367Z" style="fill:#62322d;fill-rule:nonzero;"/><path d="M2338.46,1266.84c-4.333,-2.742 -8.5,-5.642 -12.541,-8.859c-4.417,-3.479 -8.584,-7.275 -12.459,-11.383c-16.833,-17.871 -28.666,-40.7 -34,-66.167l-0.291,-1.316l-1.292,-0.371c-1.167,-0.263 -2.375,-0.629 -3.5,-0.842c-23.25,-5.854 -44.583,-5.483 -63.667,1.213c-8.166,2.741 -15.875,6.695 -23.208,11.808c-28.333,19.721 -42.875,53.879 -38.75,91.15c0.167,1.212 -0.375,2.217 -1.375,2.954c-1.417,0.95 -3.708,1.163 -5.042,0.421c-5.375,-2.792 -10.958,-5.113 -16.666,-7.008c-21.459,-7.275 -44.5,-8.013 -66.75,-2.796c-28.292,6.696 -55.25,23.037 -76.25,47.975c-4.292,5.112 -8.25,10.437 -11.834,15.975c-2,3.212 -3.958,6.483 -5.75,9.804c-0.291,0.529 -0.583,0.946 -0.791,1.421c-1.875,3.325 -3.542,6.75 -5.084,10.175c-9.625,21.616 -14.208,44.866 -13.291,67.325c0.208,6.116 0.833,12.175 2,18.133c1.708,9.438 4.5,18.558 8.416,27.308c21.25,47.396 68.834,73.813 115.584,64.375c25.416,-5.116 46.375,-19.933 57.583,-40.758c13.583,-25.146 11,-52.929 -6.5,-70.742c-9.5,-9.65 -23.542,-14.975 -37.542,-14.187c-12.75,0.633 -23.833,6.171 -31.25,15.554c-4.083,5.167 -8.083,13.704 -7.083,22.088c0.583,4.958 2.958,9.229 6.75,12.233c3.792,2.95 10,5.062 15.25,3.004c4.167,-1.529 5.125,-4.321 5.292,-5.85c0.333,-2.742 -1.167,-5.533 -3.75,-7.329c-2.959,-1.954 -6.709,-2.108 -9.959,-0.367c-0.541,0.263 -0.875,0.05 -1.083,-0.212c-0.333,-0.529 0,-0.842 0.042,-0.95c5.083,-5.167 11.041,-4.584 14.958,-2.321c4.583,2.692 8.25,8.592 6.125,15.712c-1.333,4.588 -4.333,7.696 -9.042,9.275c-7,2.425 -17.041,0.846 -23.375,-3.741c-12.791,-9.117 -12.375,-26.725 -5.333,-39.33c7.208,-13.016 21.875,-22.404 38.375,-24.404c28.167,-3.533 55.792,16.342 62.917,45.229c6.958,27.942 -5.334,59.838 -30.625,79.292c-22.875,17.717 -53.084,24.617 -82.917,18.925c-24.125,-4.533 -47,-18.554 -64.458,-39.487l-0.542,-0.63l-0.833,-0.162c-3.334,-0.525 -6.709,-1.525 -10.167,-2.579c-4.333,-1.425 -8.833,-2.796 -13.75,-3.167c-9,-0.525 -17.75,0.638 -26.833,3.583c-13.542,4.38 -26.959,12.917 -39.875,25.205c-5.917,5.691 -11.375,11.754 -16.375,18.133c-2.334,2.796 -4.542,5.696 -6.625,8.646c-2.917,-2.213 -5.917,-4.325 -9.084,-6.167c2.125,-2.9 4.167,-5.746 6.417,-8.7c11.083,-14.496 24.75,-28.887 41.875,-38.8c7.833,-4.479 15.958,-7.908 24.542,-10.071c0.625,-0.212 1.333,-0.366 1.958,-0.42c0.583,-0.209 1.167,-0.371 1.75,-0.421c2.5,-0.584 5.125,-1 7.667,-1.371c0.833,-0.158 1.75,-0.213 2.583,-0.267l0.042,0c0.291,-0.05 0.625,-0.154 0.833,-0.154c0.625,-0.054 1.125,-0.054 1.667,-0.158c6.541,-0.529 13.125,-0.263 18.625,0.629l4.541,0.796l-2.208,-3.955c-8.042,-14.712 -13.167,-30.737 -15.292,-47.449c-0.791,-5.955 -1.125,-12.126 -1.125,-18.242c0,-21.879 4.834,-44.284 14.167,-65.371c1.5,-3.375 3.125,-6.854 4.917,-10.175c0.25,-0.579 0.583,-1.162 0.958,-1.742c1.75,-3.316 3.667,-6.641 5.625,-9.858c3.708,-5.746 7.667,-11.388 12.125,-16.871c17.458,-21.666 39.833,-37.587 64.083,-46.758c12.25,-4.746 24.917,-7.7 37.625,-8.858c20.625,-1.896 41.417,0.95 60.834,9.016l3.125,1.317l0,-3.375c-0.667,-15.183 1.583,-29.363 6.5,-42.121c8,-21.037 23.208,-38.221 41.833,-49.821c12.083,-7.646 25.75,-12.808 39.75,-15.129c12.208,-2.004 24.75,-1.954 37,0.737c3.125,0.634 6.25,1.425 9.333,2.425l3.25,1.055l-0.375,-3.321c-4.583,-41.279 6.917,-82.875 31.459,-114.138c5.291,-6.646 11.083,-12.654 17.458,-18.137c1.625,-1.579 3.333,-3.004 5.125,-4.371c-0.417,4.9 -0.667,9.854 -0.625,14.917c0,0.529 0.083,1.004 0.083,1.529c-1.041,0.95 -2.041,1.791 -2.958,2.741c-0.583,0.58 -1.167,1.159 -1.625,1.742c-28.75,30.1 -41.875,74.492 -36.75,116.033c0.5,4.059 1.167,8.013 2,11.967c2.375,12.021 6.625,23.671 12.375,34.583c5.917,11.071 13.5,21.034 22.375,29.471c3.958,3.9 8.208,7.434 12.583,10.65c-0.25,4.85 -0.375,9.7 -0.041,14.604l0.166,0.05Z" style="fill:#62322d;fill-rule:nonzero;"/><path d="M2232.46,1428.69c-9.25,48.975 1.334,101.274 30.042,142.866c16.167,23.463 38.333,41.863 63.458,53.142c5.334,2.375 10.792,4.479 16.334,6.166c-0.625,3.325 -1.167,6.646 -1.75,9.963c-4.875,-1.417 -9.792,-3.108 -14.584,-5.058c-7.666,-3.005 -15.083,-6.642 -22.208,-10.859c-32.042,-19.029 -56.792,-48.4 -71.583,-84.825c-14.875,-36.533 -18.042,-76.391 -10.584,-114.087c0.834,-4.321 1.792,-8.696 3,-12.967c8.334,-31.421 24.209,-60.733 46.959,-84.404c15.916,-16.5 34.375,-29.362 54.416,-38.221c4.75,-2.158 9.625,-4.112 14.584,-5.746c0.583,3.375 1.375,6.746 2.291,10.175c0.167,0.634 0.292,1.213 0.584,1.9c-0.167,0.05 -0.417,0.155 -0.584,0.155c-5.708,1.95 -11.375,4.275 -16.875,6.908c-8.041,3.792 -15.916,8.433 -23.333,13.812c-26.875,19.292 -48.5,47.184 -60.792,78.446c-2.583,6.642 -4.791,13.338 -6.5,20.192c-1.166,4.167 -2.083,8.329 -2.791,12.55l-0.084,-0.108Z" style="fill:#62322d;fill-rule:nonzero;"/><path d="M244.267,1409.24c1.558,-2.179 4.587,-2.746 6.837,-1.246c2.296,1.529 2.917,4.637 1.388,6.933c-1.529,2.292 -4.171,3.863 -7.584,4.579c-4.55,0.959 -10.987,0.159 -14.412,0.921c-40.396,8.975 -73.329,50.579 -80.709,88.95c-6.612,34.375 11.796,68.746 34.621,93.229c15.988,17.146 35.075,29.53 56.43,39.021c2.52,1.121 3.658,4.079 2.537,6.6c-1.121,2.521 -4.079,3.659 -6.6,2.538c-22.596,-10.042 -42.762,-23.196 -59.679,-41.342c-24.9,-26.704 -44.342,-64.433 -37.129,-101.933c8.054,-41.879 44.271,-87.029 88.362,-96.825c2.663,-0.592 7,-0.396 11.067,-0.575c1.217,-0.054 2.4,-0.146 3.458,-0.367c0.496,-0.104 1.25,-0.412 1.413,-0.483Z" style="fill:#62322d;"/><path d="M293.092,1274.31c-70.4,-21.333 -133.859,5.221 -183.188,53.063c-48.708,47.233 -83.546,115.254 -97.491,177.362c-17.938,79.88 -10.659,168.963 18.337,245.263c0.979,2.579 3.871,3.875 6.45,2.896c2.579,-0.984 3.879,-3.871 2.896,-6.45c-28.313,-74.517 -35.446,-161.509 -17.925,-239.517c13.55,-60.354 47.362,-126.475 94.696,-172.375c46.704,-45.3 106.671,-70.871 173.325,-50.671c2.641,0.8 5.433,-0.696 6.233,-3.337c0.8,-2.642 -0.692,-5.434 -3.333,-6.234Z" style="fill:url(#_Linear1);"/><defs><linearGradient id="_Linear1" x1="0" y1="0" x2="1" y2="0" gradientUnits="userSpaceOnUse" gradientTransform="matrix(-0.666667,3.91667,-3.91667,-0.666667,2259.83,2845.88)"><stop offset="0" style="stop-color:#62322d;stop-opacity:1"/><stop offset="1" style="stop-color:#33100c;stop-opacity:1"/></linearGradient></defs></svg>