<svg width="1213" height="533" viewBox="0 0 1213 533" fill="none" xmlns="http://www.w3.org/2000/svg">
<path d="M934.63 22.906L936.746 23.199L934.63 23.492C926.671 24.62 920.544 31.057 919.692 38.999L918.997 46.398L918.271 38.999C917.449 31.016 911.322 24.62 903.364 23.492L901.248 23.199L903.364 22.906C911.322 21.778 917.449 15.382 918.271 7.398L918.997 0L919.692 7.398C920.544 15.382 926.671 21.778 934.63 22.906Z" fill="#62322D"/>
<path d="M1167.24 42.1026L1168.27 42.2556L1167.24 42.4096C1163.35 43.0006 1160.36 46.3736 1159.94 50.5356L1159.6 54.4126L1159.24 50.5356C1158.84 46.3526 1155.85 43.0006 1151.96 42.4096L1150.93 42.2556L1151.96 42.1026C1155.85 41.5116 1158.84 38.1596 1159.24 33.9756L1159.6 30.0986L1159.94 33.9756C1160.36 38.1596 1163.35 41.5116 1167.24 42.1026Z" fill="#62322D"/>
<path d="M876.788 72.7872L877.821 72.9402L876.788 73.0942C872.9 73.6852 869.908 77.0582 869.491 81.2202L869.152 85.0972L868.797 81.2202C868.396 77.0362 865.403 73.6852 861.516 73.0942L860.482 72.9402L861.516 72.7872C865.403 72.1952 868.396 68.8442 868.797 64.6602L869.152 60.7832L869.491 64.6602C869.908 68.8442 872.9 72.1952 876.788 72.7872Z" fill="#62322D"/>
<path d="M692.842 254.662L694.242 254.851L692.842 255.04C687.574 255.769 683.518 259.924 682.954 265.05L682.494 269.826L682.013 265.05C681.47 259.897 677.414 255.769 672.146 255.04L670.746 254.851L672.146 254.662C677.414 253.934 681.47 249.806 682.013 244.652L682.494 239.876L682.954 244.652C683.518 249.806 687.574 253.934 692.842 254.662Z" fill="#62322D"/>
<path d="M948.498 41.7955L949.374 41.9015L948.498 42.0085C945.2 42.4205 942.661 44.7685 942.308 47.6655L942.02 50.3645L941.719 47.6655C941.379 44.7535 938.84 42.4205 935.542 42.0085L934.665 41.9015L935.542 41.7955C938.84 41.3835 941.379 39.0505 941.719 36.1385L942.02 33.4395L942.308 36.1385C942.661 39.0505 945.2 41.3835 948.498 41.7955Z" fill="#62322D"/>
<path d="M794.057 61.974L795.873 62.211L794.057 62.448C787.226 63.363 781.968 68.578 781.236 75.012L780.639 81.006L780.016 75.012C779.311 68.544 774.052 63.363 767.222 62.448L765.405 62.211L767.222 61.974C774.052 61.06 779.311 55.879 780.016 49.41L780.639 43.417L781.236 49.41C781.968 55.879 787.226 61.06 794.057 61.974Z" fill="#62322D"/>
<path d="M735.071 164.581L735.983 164.715L735.071 164.849C731.658 165.33 729.016 168.255 728.668 171.881L728.341 175.239L728.015 171.881C727.658 168.255 725.024 165.353 721.611 164.849L720.699 164.715L721.611 164.581C725.024 164.1 727.666 161.175 728.015 157.549L728.341 154.191L728.668 157.549C729.016 161.175 731.658 164.077 735.071 164.581Z" fill="#62322D"/>
<path d="M11.79 416.737L12.536 416.836L11.79 416.935C8.97298 417.316 6.81299 419.477 6.52399 422.173L6.27899 424.673L6.02298 422.173C5.73298 419.477 3.551 417.316 0.746002 416.935L0 416.836L0.746002 416.737C3.551 416.356 5.71098 414.196 6.02298 411.499L6.27899 409L6.52399 411.499C6.81299 414.196 8.97298 416.356 11.79 416.737Z" fill="#62322D"/>
<path d="M1063.42 61.4319L1064.97 61.6469L1063.42 61.8619C1057.6 62.6339 1053.11 67.3279 1052.52 73.1479L1051.96 78.5379L1051.4 73.1479C1050.79 67.3279 1046.31 62.6719 1040.5 61.8619L1038.94 61.6469L1040.5 61.4319C1046.31 60.6599 1050.8 55.9659 1051.4 50.1459L1051.96 44.7559L1052.52 50.1459C1053.11 55.9659 1057.6 60.6219 1063.42 61.4319Z" fill="#62322D"/>
<path d="M1183.67 124.549L1185.65 124.799L1183.67 125.051C1176.31 125.951 1170.63 131.429 1169.88 138.219L1169.18 144.509L1168.48 138.219C1167.71 131.429 1162.04 125.996 1154.69 125.051L1152.72 124.799L1154.69 124.549C1162.06 123.648 1167.73 118.171 1168.48 111.379L1169.18 105.091L1169.88 111.379C1170.66 118.171 1176.32 123.604 1183.67 124.549Z" fill="#62322D"/>
<path d="M759.385 279.09L756.491 279.14L719.271 279.862C718.563 279.874 717.982 280.469 717.982 281.19C717.982 281.911 718.563 282.481 719.271 282.506L737.141 282.847L743.84 282.986C747.151 282.328 750.741 282.405 754.545 283.189L759.979 283.291C759.688 281.911 759.498 280.495 759.398 279.077L759.385 279.09ZM861.666 277.104L846.284 277.395L838.879 277.546L836.01 277.597C836.187 278.483 836.326 279.355 836.427 280.241L847.119 280.039C851.782 278.799 856.737 278.685 861.484 279.76L869.049 279.609C866.732 278.507 864.242 277.66 861.676 277.104H861.666ZM871.76 281.026C871.76 280.114 871.779 279.216 871.817 278.293C871.817 277.925 871.673 277.584 871.434 277.318C871.367 277.255 871.3 277.192 871.233 277.141C871.147 277.09 871.06 277.04 870.984 277.015C870.888 276.964 870.792 276.951 870.706 276.926C870.61 276.901 870.553 276.914 870.476 276.914L861.666 277.09L846.284 277.381L838.879 277.534L836.01 277.584C836.187 278.47 836.326 279.343 836.427 280.228L847.119 280.026C851.782 278.786 856.737 278.672 861.484 279.748L869.049 279.596H869.145V279.646C869.136 280.633 869.136 281.595 869.145 282.582C870.084 283.063 870.984 283.619 871.827 284.202V284.062C871.788 283.253 871.779 282.442 871.779 281.607V281L871.76 281.026ZM803.492 281.507L800.699 281.456C801.508 282.202 802.165 283.1 802.671 284.138L805.11 284.189C804.68 283.214 804.149 282.316 803.505 281.507H803.492ZM801.748 279.66C801.217 279.191 800.56 278.71 799.777 278.293H799.763L789.375 278.495C787.353 279.66 785.836 281.43 785.268 283.505C785.255 283.594 785.217 283.683 785.217 283.784L787.1 283.821C787.467 282.847 788.098 281.949 788.932 281.228L787.568 281.19L788.997 281.152C789.122 281.051 789.236 280.949 789.375 280.835C791.764 279.077 795.239 278.66 798.045 279.786C798.79 280.077 799.473 280.481 800.079 280.949L802.999 280.899C802.62 280.444 802.203 280.039 801.761 279.66H801.748ZM836.604 282.151C836.617 282.253 836.642 282.342 836.642 282.442C836.68 283.012 837.034 283.544 837.539 283.809C837.817 283.949 838.259 284.049 838.765 283.721C839.612 283.189 840.472 282.683 841.356 282.24L836.604 282.151Z" fill="#62322D"/>
<path d="M875.542 253.784C875.542 253.784 875.494 253.695 875.456 253.658C875.408 253.569 875.351 253.505 875.264 253.455C875.197 253.392 875.111 253.328 875.025 253.278C874.939 253.228 874.824 253.189 874.709 253.151L727.903 216.8C727.195 216.623 726.488 217.054 726.298 217.749C726.122 218.445 726.526 219.166 727.209 219.356L794.305 238.765L818.696 245.813L872.497 261.363C872.602 261.401 872.698 261.414 872.822 261.414H872.88C872.966 261.414 873.052 261.414 873.119 261.401C873.215 261.388 873.301 261.35 873.397 261.3C873.445 261.3 873.483 261.261 873.531 261.249C873.847 261.059 874.067 260.768 874.154 260.401C874.585 258.567 875.092 256.681 875.657 254.796C875.753 254.454 875.724 254.075 875.533 253.758L875.542 253.784ZM871.913 258.465L793.445 235.767L872.736 255.391C872.449 256.428 872.171 257.453 871.903 258.465H871.913Z" fill="#62322D"/>
<path d="M880.886 235.705L810.997 193.484L882.475 232.959C881.949 233.858 881.403 234.768 880.886 235.705ZM885.617 232.124C885.597 232.061 885.559 231.985 885.521 231.921C885.482 231.833 885.435 231.745 885.387 231.681C885.32 231.593 885.243 231.53 885.186 231.479C885.119 231.416 885.042 231.377 884.956 231.327L752.534 158.182C751.914 157.815 751.117 158.043 750.751 158.663C750.385 159.308 750.599 160.093 751.219 160.459L880.713 238.703C880.8 238.754 880.886 238.792 880.991 238.83C881.077 238.868 881.173 238.88 881.278 238.88C881.317 238.893 881.345 238.893 881.384 238.893C881.432 238.893 881.48 238.893 881.527 238.88C881.594 238.88 881.671 238.868 881.719 238.843C882.083 238.742 882.38 238.514 882.552 238.185C883.462 236.489 884.439 234.794 885.435 233.175C885.636 232.858 885.703 232.504 885.617 232.137V232.124Z" fill="#62322D"/>
<path d="M895.451 219.281C895.097 219.281 894.743 219.13 894.503 218.877L789.654 109.761C789.149 109.242 789.161 108.419 789.667 107.901C790.173 107.395 791.007 107.382 791.525 107.888L900.517 212.855C900.786 213.108 900.92 213.449 900.92 213.816C900.92 214.183 900.766 214.525 900.508 214.778C899.09 216.106 897.721 217.485 896.419 218.877C896.17 219.143 895.825 219.295 895.461 219.295L895.451 219.281ZM838.842 157.133L895.451 216.043C896.179 215.283 896.926 214.537 897.683 213.804L838.842 157.133Z" fill="#62322D"/>
<path d="M914.078 203.971C913.963 203.971 913.848 203.958 913.733 203.933C913.378 203.844 913.091 203.604 912.909 203.288L839.852 70.7389C839.498 70.1059 839.726 69.3099 840.345 68.9549C840.964 68.5879 841.773 68.8029 842.14 69.4229L920.283 199.049C920.475 199.365 920.522 199.732 920.417 200.086C920.321 200.441 920.092 200.732 919.766 200.909C918.071 201.807 916.385 202.781 914.757 203.794C914.547 203.92 914.307 203.997 914.068 203.997L914.078 203.971ZM875.14 129.244L914.566 200.795C915.476 200.251 916.385 199.72 917.314 199.213L875.14 129.244Z" fill="#62322D"/>
<path d="M936.055 194.078C935.825 194.078 935.596 194.015 935.395 193.901C935.079 193.724 934.849 193.42 934.763 193.066L898.458 46.0676C898.277 45.3716 898.698 44.6506 899.407 44.4736C900.096 44.2836 900.814 44.6886 901.025 45.3846L942.989 190.864C943.094 191.219 943.046 191.586 942.864 191.902C942.673 192.218 942.376 192.446 942.021 192.522C941.207 192.712 940.365 192.926 939.407 193.167C938.43 193.42 937.434 193.711 936.429 194.015C936.304 194.052 936.18 194.078 936.046 194.078H936.055ZM917.401 111.697L937.003 191.079C937.588 190.915 938.162 190.75 938.737 190.598C939.196 190.472 939.646 190.358 940.077 190.257L917.401 111.697Z" fill="#62322D"/>
<path d="M959.824 190.142C959.489 190.142 959.144 190.003 958.895 189.762C958.636 189.509 958.483 189.155 958.502 188.788L961.433 37.4134C961.442 36.6914 962.036 36.1094 962.754 36.1094C963.482 36.1094 964.076 36.6914 964.085 37.4134L967.016 188.776C967.016 189.143 966.882 189.484 966.623 189.75C966.374 190.003 966.02 190.142 965.656 190.129C963.721 190.066 961.777 190.066 959.881 190.129H959.843L959.824 190.142ZM962.754 105.787L961.184 187.46C962.228 187.447 963.291 187.434 964.334 187.46L962.754 105.799V105.787Z" fill="#62322D"/>
<path d="M989.463 194.052C989.338 194.052 989.214 194.04 989.08 193.989C987.212 193.419 985.326 192.914 983.497 192.483C983.142 192.395 982.836 192.179 982.654 191.863C982.462 191.547 982.424 191.18 982.52 190.826L1024.49 45.3719C1024.69 44.6759 1025.4 44.2709 1026.11 44.4609C1026.81 44.6499 1027.22 45.3589 1027.06 46.0549L990.765 193.04C990.679 193.395 990.449 193.698 990.133 193.875C989.932 193.989 989.702 194.052 989.472 194.052H989.463ZM985.46 190.244C986.465 190.497 987.49 190.775 988.515 191.067L1008.11 111.735L985.46 190.244Z" fill="#62322D"/>
<path d="M1011.43 203.997C1011.19 203.997 1010.94 203.934 1010.73 203.794C1009.08 202.77 1007.4 201.796 1005.72 200.898C1005.41 200.72 1005.17 200.429 1005.07 200.075C1004.97 199.721 1005.02 199.354 1005.21 199.037L1083.36 69.3994C1083.73 68.7794 1084.54 68.5764 1085.16 68.9304C1085.78 69.2984 1086 70.0824 1085.65 70.7144L1012.59 203.289C1012.42 203.605 1012.12 203.833 1011.77 203.934C1011.65 203.959 1011.54 203.972 1011.44 203.972L1011.43 203.997ZM1008.19 199.227C1009.11 199.733 1010.02 200.265 1010.93 200.821L1050.41 129.208L1008.19 199.227Z" fill="#62322D"/>
<path d="M1030.07 219.281C1029.7 219.281 1029.37 219.13 1029.11 218.864C1027.79 217.448 1026.41 216.068 1025.02 214.778C1024.75 214.525 1024.6 214.183 1024.6 213.816C1024.6 213.449 1024.74 213.108 1025 212.855L1134 107.888C1134.52 107.382 1135.33 107.395 1135.86 107.901C1136.35 108.407 1136.37 109.242 1135.87 109.761L1031.03 218.877C1030.77 219.143 1030.44 219.281 1030.09 219.281H1030.07ZM1027.83 213.804C1028.59 214.537 1029.34 215.283 1030.07 216.043L1086.67 157.133L1027.83 213.804Z" fill="#62322D"/>
<path d="M1044.13 238.867C1044.01 238.867 1043.89 238.855 1043.77 238.816C1043.42 238.716 1043.13 238.488 1042.95 238.158C1042.06 236.476 1041.08 234.781 1040.06 233.136C1039.88 232.832 1039.82 232.453 1039.92 232.098C1040.01 231.744 1040.25 231.453 1040.56 231.276L1172.96 158.144C1173.59 157.802 1174.38 158.017 1174.74 158.637C1175.11 159.258 1174.89 160.067 1174.27 160.434L1044.8 238.665C1044.59 238.791 1044.36 238.855 1044.12 238.855L1044.13 238.867ZM1043.05 232.933C1043.6 233.844 1044.13 234.767 1044.63 235.691L1114.56 193.444L1043.05 232.946V232.933Z" fill="#62322D"/>
<path d="M1184.9 339.126C1184.61 340.151 1184.38 341.201 1184.18 342.238L1186.8 342.884C1186.98 341.885 1187.19 340.885 1187.47 339.873L1184.9 339.126ZM1121.85 320.893L1081.08 309.101L1080.69 308.975H1080.68L1080.29 308.874L1079.03 308.494L1078.64 308.393L1078.25 308.266C1078.97 309.342 1079.66 310.443 1080.29 311.606L1080.63 311.708L1081 311.809L1082.13 312.151L1082.51 312.252L1082.88 312.353L1120.51 323.247L1122.63 323.855C1123.06 323.058 1123.53 322.286 1124.01 321.501L1121.87 320.881L1121.85 320.893ZM1120.29 323.677L1083.94 314.669L1083.61 314.606L1083.27 314.517L1082.17 314.239L1081.85 314.15L1081.53 314.087C1082 315.086 1082.44 316.111 1082.86 317.148L1083.17 317.237L1083.49 317.3L1084.56 317.553L1084.89 317.642L1085.21 317.73L1119.11 326.119L1121.24 326.651C1121.6 325.841 1122 325.006 1122.45 324.209L1120.31 323.677H1120.29ZM1053 300.978C1053 300.978 1052.95 300.966 1052.91 300.966C1052.83 300.954 1052.74 300.928 1052.66 300.928C1052.42 300.928 1052.18 300.978 1051.96 301.105C1051.68 301.282 1051.46 301.561 1051.39 301.877C1051.39 301.889 1051.39 301.927 1051.35 301.94C1050.92 303.775 1050.41 305.66 1049.85 307.52C1049.79 307.71 1049.78 307.912 1049.81 308.102C1049.82 308.254 1049.87 308.418 1049.95 308.557C1050.11 308.836 1050.34 309.038 1050.62 309.139C1050.68 309.152 1050.73 309.178 1050.78 309.19H1050.88L1051.12 309.278C1051.93 306.571 1052.6 303.813 1053.15 301.017L1052.98 300.966L1053 300.978Z" fill="#62322D"/>
<path d="M1199.2 217.764C1199.01 217.055 1198.3 216.637 1197.6 216.815L1050.78 253.166C1050.69 253.178 1050.61 253.216 1050.53 253.254C1050.44 253.292 1050.38 253.343 1050.3 253.393C1050.21 253.457 1050.15 253.52 1050.07 253.595C1050.02 253.659 1049.99 253.734 1049.94 253.798C1049.76 254.115 1049.74 254.494 1049.83 254.836C1050.12 255.81 1050.42 256.809 1050.69 257.809C1050.93 258.808 1051.14 259.643 1051.34 260.415C1051.4 260.783 1051.62 261.073 1051.94 261.263C1052.03 261.313 1052.12 261.351 1052.2 261.364C1052.28 261.415 1052.39 261.427 1052.47 261.427C1052.52 261.44 1052.56 261.44 1052.61 261.44C1052.65 261.44 1052.7 261.44 1052.74 261.427C1052.83 261.427 1052.92 261.415 1052.99 261.39L1198.29 219.357C1198.98 219.167 1199.4 218.446 1199.2 217.75V217.764ZM1053.58 258.467C1053.47 258.049 1053.38 257.606 1053.23 257.138C1053.08 256.556 1052.92 255.974 1052.76 255.404L1132.05 235.768L1053.58 258.467Z" fill="#62322D"/>
<path d="M1056.39 282.773C1056.41 281.722 1056.39 280.659 1056.38 279.61L1137.96 281.204L1056.41 282.773H1056.39ZM1200.4 279.749L1197.49 279.698L1194.55 279.647L1185.68 279.47L1055.05 276.927C1055.05 276.927 1054.93 276.927 1054.88 276.94C1054.79 276.94 1054.7 276.952 1054.61 276.991C1054.52 277.003 1054.46 277.041 1054.37 277.117C1054.28 277.155 1054.17 277.243 1054.08 277.319C1053.83 277.573 1053.69 277.927 1053.7 278.294C1053.77 280.217 1053.77 282.152 1053.7 284.089C1053.7 284.455 1053.84 284.797 1054.08 285.063C1054.18 285.164 1054.32 285.266 1054.46 285.316C1054.55 285.366 1054.64 285.404 1054.72 285.417C1054.79 285.429 1054.89 285.455 1054.96 285.455H1055.05L1176.12 283.101L1181.57 283.001C1186.15 281.394 1191.26 281.305 1196.84 282.71L1200.89 282.621C1200.69 281.672 1200.52 280.722 1200.4 279.749Z" fill="#62322D"/>
<path d="M879.401 243.727C879.363 243.664 879.344 243.601 879.315 243.536C879.258 243.473 879.21 243.398 879.133 243.347C879.066 243.259 878.999 243.196 878.903 243.119H878.894C878.808 243.069 878.741 243.031 878.655 242.993L779.33 204.466C778.66 204.213 777.902 204.529 777.636 205.187C777.358 205.857 777.674 206.617 778.331 206.92L876.059 249.269C876.165 249.306 876.26 249.332 876.375 249.357C876.442 249.395 876.529 249.395 876.605 249.395H876.672C876.758 249.395 876.845 249.383 876.921 249.345C876.969 249.345 877.046 249.306 877.103 249.294C877.438 249.142 877.706 248.876 877.821 248.534C878.3 247.308 878.817 246.029 879.373 244.764C879.516 244.436 879.526 244.055 879.382 243.727H879.401ZM875.858 246.308L841.94 231.593L876.414 244.966C876.222 245.422 876.05 245.852 875.858 246.295V246.308Z" fill="#62322D"/>
<path d="M891.822 223.103C891.784 223.002 891.755 222.914 891.698 222.851C891.63 222.786 891.592 222.711 891.516 222.647C891.468 222.597 891.42 222.546 891.362 222.509L805.4 159.562C804.819 159.145 803.997 159.271 803.568 159.84C803.112 160.41 803.226 161.219 803.795 161.675L887.273 227.924C887.331 227.974 887.398 228.025 887.455 228.05C887.551 228.101 887.647 228.139 887.742 228.151C887.829 228.189 887.924 228.202 888.02 228.202H888.279C888.624 228.151 888.949 227.961 889.169 227.67C889.964 226.57 890.788 225.482 891.63 224.419C891.86 224.14 891.956 223.774 891.908 223.419C891.899 223.318 891.87 223.217 891.822 223.128V223.103ZM858.91 202.011L888.71 223.824C888.422 224.204 888.126 224.584 887.848 224.963L858.91 202.011Z" fill="#62322D"/>
<path d="M904.674 210.677H904.511C904.156 210.626 903.831 210.437 903.611 210.158L840.133 124.563C839.703 123.981 839.817 123.171 840.385 122.728C840.953 122.286 841.775 122.387 842.23 122.944L908.983 206.008C909.213 206.286 909.318 206.653 909.261 207.007C909.213 207.362 909.021 207.691 908.734 207.906C907.633 208.716 906.55 209.563 905.507 210.398C905.267 210.588 904.98 210.702 904.674 210.702V210.677ZM882.897 177.768L904.932 207.463C905.306 207.172 905.689 206.881 906.062 206.59L882.916 177.78L882.897 177.768Z" fill="#62322D"/>
<path d="M925.224 198.089C925.062 198.089 924.88 198.051 924.717 197.987C924.391 197.848 924.123 197.582 923.98 197.254L884.783 98.1078C884.515 97.4368 884.831 96.6778 885.502 96.3988C886.153 96.1208 886.928 96.4248 887.216 97.0828L930.242 194.635C930.396 194.963 930.396 195.343 930.242 195.684C930.089 196.026 929.831 196.279 929.496 196.419C928.27 196.887 927.006 197.418 925.742 197.975C925.56 198.051 925.387 198.089 925.196 198.089H925.224ZM912.373 160.637L925.952 194.989C926.393 194.798 926.843 194.622 927.283 194.432L912.383 160.624L912.373 160.637Z" fill="#62322D"/>
<path d="M872.526 266.59C872.526 266.59 872.459 266.502 872.392 266.463C872.334 266.4 872.257 266.324 872.171 266.274C872.076 266.223 871.989 266.185 871.894 266.147C871.798 266.109 871.702 266.096 871.597 266.084L833.305 261.934L829.766 261.554C830.89 263.351 831.889 265.249 832.774 267.21L836.035 267.691L870.735 272.828H871.013C871.108 272.828 871.204 272.815 871.3 272.777C871.386 272.765 871.472 272.726 871.549 272.675H871.558C871.558 272.675 871.683 272.612 871.74 272.549C872.028 272.347 872.21 272.018 872.257 271.651C872.411 270.196 872.583 268.88 872.775 267.602C872.822 267.235 872.736 266.881 872.526 266.577V266.59ZM869.777 269.993L834.783 264.831L833.191 264.591L834.758 264.768L869.959 268.589C869.892 269.058 869.825 269.526 869.768 270.007L869.777 269.993ZM764.288 255.746C764.224 256.278 764.477 256.784 764.895 257.037C765.425 256.227 765.994 255.443 766.6 254.684L765.741 254.595C765.034 254.507 764.377 255.025 764.288 255.734V255.746Z" fill="#62322D"/>
<path d="M948.342 191.243C948.055 191.243 947.767 191.154 947.547 190.976C947.25 190.762 947.068 190.433 947.03 190.066L934.791 84.1391C934.705 83.4171 935.213 82.7721 935.931 82.6701C936.639 82.5701 937.31 83.0631 937.425 83.7841L953.752 189.143C953.8 189.497 953.714 189.864 953.494 190.155C953.283 190.446 952.958 190.623 952.603 190.673C951.263 190.825 949.912 191.015 948.572 191.23C948.495 191.23 948.428 191.243 948.351 191.243H948.342ZM945.258 151.69L949.491 188.396C949.96 188.332 950.439 188.257 950.908 188.194L945.249 151.678L945.258 151.69Z" fill="#62322D"/>
<path d="M976.516 191.116C976.458 191.116 976.381 191.116 976.314 191.104C975.05 190.914 973.729 190.737 972.273 190.585C971.919 190.547 971.593 190.357 971.363 190.079C971.143 189.788 971.047 189.434 971.095 189.079L986.667 83.6203C986.772 82.9113 987.423 82.4053 988.141 82.4933C988.869 82.5823 989.367 83.2283 989.29 83.9493L977.828 189.939C977.799 190.294 977.607 190.623 977.33 190.85C977.1 191.027 976.812 191.129 976.516 191.129V191.116ZM973.93 188.105C974.409 188.168 974.888 188.218 975.357 188.295L979.341 151.476L973.93 188.105Z" fill="#62322D"/>
<path d="M999.681 197.822C999.499 197.822 999.307 197.784 999.145 197.709C997.919 197.164 996.645 196.646 995.381 196.152C995.036 196.025 994.778 195.76 994.634 195.43C994.5 195.102 994.5 194.722 994.634 194.393L1036.93 96.5383C1037.23 95.8803 1037.99 95.5643 1038.66 95.8423C1039.33 96.1213 1039.65 96.8803 1039.38 97.5503L1000.91 196.987C1000.77 197.329 1000.51 197.595 1000.18 197.734C1000.02 197.797 999.844 197.835 999.681 197.835V197.822ZM997.603 194.191C998.043 194.367 998.493 194.558 998.934 194.735L1012.29 160.218L997.603 194.191Z" fill="#62322D"/>
<path d="M1159.58 253.177L1053.78 265.438C1053.69 265.438 1053.62 265.45 1053.56 265.488C1053.46 265.501 1053.37 265.538 1053.31 265.576C1053.22 265.627 1053.13 265.678 1053.07 265.729C1052.98 265.792 1052.93 265.868 1052.87 265.956C1052.66 266.247 1052.58 266.614 1052.63 266.981C1052.86 268.31 1053.05 269.676 1053.18 271.004C1053.24 271.371 1053.41 271.701 1053.7 271.903C1053.79 271.966 1053.88 272.029 1053.98 272.08C1054.07 272.118 1054.16 272.131 1054.23 272.143C1054.32 272.181 1054.41 272.181 1054.5 272.181H1054.51C1054.57 272.181 1054.64 272.181 1054.7 272.169L1159.95 255.821C1160.66 255.72 1161.16 255.063 1161.05 254.341C1160.95 253.633 1160.3 253.126 1159.58 253.202L1159.58 253.177ZM1055.63 269.322C1055.58 268.854 1055.51 268.385 1055.45 267.905L1092.12 263.666L1055.63 269.322Z" fill="#62322D"/>
<path d="M1160.1 305.13L1149.17 303.51L1054.76 289.567C1054.67 289.554 1054.58 289.554 1054.51 289.554C1054.43 289.554 1054.32 289.567 1054.23 289.592C1054.06 289.643 1053.9 289.731 1053.76 289.833C1053.47 290.035 1053.3 290.364 1053.24 290.731C1053.1 292.161 1052.92 293.502 1052.72 294.78C1052.72 294.818 1052.72 294.869 1052.72 294.906C1052.72 294.995 1052.72 295.083 1052.72 295.159C1052.72 295.248 1052.74 295.336 1052.78 295.413C1052.83 295.552 1052.91 295.665 1052.98 295.779C1053.12 295.957 1053.3 296.095 1053.48 296.171C1053.58 296.222 1053.66 296.234 1053.74 296.26C1053.78 296.273 1053.8 296.273 1053.84 296.273C1053.85 296.285 1053.87 296.285 1053.89 296.285H1053.98L1055.76 296.488H1056.04C1056.04 296.488 1056.11 296.488 1056.12 296.501L1062.92 297.26H1062.99L1064.69 297.45L1068.24 297.829L1069.13 297.93H1069.15L1069.87 297.993L1140.12 305.611L1145.13 306.142C1150.46 304.902 1155.98 305.067 1161.15 306.812C1161.16 306.749 1161.19 306.66 1161.2 306.584C1161.29 305.863 1160.81 305.205 1160.08 305.104L1160.1 305.13ZM1055.55 293.792C1055.61 293.325 1055.67 292.857 1055.73 292.376L1092.24 297.766L1055.55 293.792Z" fill="#62322D"/>
<path d="M1020.32 210.273C1020.01 210.273 1019.73 210.172 1019.49 209.983C1018.43 209.148 1017.35 208.313 1016.25 207.515C1015.96 207.3 1015.77 206.983 1015.71 206.617C1015.66 206.262 1015.77 205.896 1015.99 205.617L1082.15 122.059C1082.59 121.49 1083.42 121.389 1084 121.832C1084.57 122.275 1084.69 123.085 1084.27 123.666L1021.39 209.729C1021.18 210.02 1020.86 210.21 1020.49 210.26H1020.32V210.273ZM1018.91 206.199C1019.29 206.49 1019.67 206.781 1020.05 207.072L1041.84 177.25L1018.91 206.212V206.199Z" fill="#62322D"/>
<path d="M1037.04 227.632H1036.86C1036.5 227.581 1036.18 227.392 1035.96 227.101C1035.15 226 1034.31 224.911 1033.47 223.874C1033.25 223.596 1033.14 223.229 1033.18 222.874C1033.22 222.52 1033.42 222.192 1033.7 221.976L1119.19 158.423C1119.78 157.992 1120.58 158.106 1121.03 158.675C1121.47 159.244 1121.37 160.067 1120.81 160.523L1037.84 227.353C1037.6 227.543 1037.32 227.644 1037.01 227.644L1037.04 227.632ZM1036.39 223.28C1036.68 223.659 1036.97 224.039 1037.26 224.418L1066.04 201.239L1036.38 223.292L1036.39 223.28Z" fill="#62322D"/>
<path d="M1048.67 248.762C1048.49 248.762 1048.33 248.724 1048.17 248.661C1047.84 248.522 1047.57 248.257 1047.44 247.915C1046.97 246.687 1046.43 245.434 1045.88 244.157C1045.72 243.828 1045.72 243.448 1045.87 243.119C1046 242.79 1046.27 242.524 1046.6 242.385L1145.63 203.137C1146.31 202.871 1147.06 203.187 1147.34 203.859C1147.62 204.529 1147.31 205.288 1146.66 205.579L1049.22 248.648C1049.05 248.724 1048.87 248.762 1048.68 248.762H1048.67ZM1048.85 244.347C1049.04 244.789 1049.22 245.232 1049.4 245.675L1083.18 230.745L1048.85 244.347Z" fill="#62322D"/>
<path d="M1049.62 313.176L1049.44 313.113C1049.44 313.113 1049.4 313.1 1049.39 313.1C1049.08 312.961 1048.72 312.961 1048.4 313.1C1048.34 313.113 1048.28 313.151 1048.22 313.188C1048 313.315 1047.85 313.505 1047.74 313.707C1047.71 313.758 1047.7 313.796 1047.69 313.846C1047.15 315.226 1046.64 316.453 1046.13 317.63C1046.07 317.781 1046.03 317.958 1046 318.136C1046 318.136 1046.04 318.149 1046 318.149C1046 318.326 1046.04 318.477 1046.11 318.655C1046.24 318.996 1046.52 319.274 1046.85 319.401L1046.94 319.439L1047.18 319.528L1047.43 319.628C1048.33 317.554 1049.13 315.441 1049.84 313.302L1049.6 313.202L1049.62 313.176ZM1118.02 342.821L1115.69 341.822L1089.17 330.333L1088.88 330.194H1088.88L1088.56 330.054L1087.43 329.574L1087.14 329.447H1087.13L1086.82 329.296C1086.96 329.814 1087.1 330.345 1087.27 330.864L1087.3 330.991C1087.76 332.585 1088.19 334.116 1088.64 335.584L1089.27 335.836L1090.36 336.267L1090.68 336.394L1091.01 336.52L1116 346.212L1118.53 347.199C1118.26 345.769 1118.1 344.314 1118.05 342.846L1118.02 342.821Z" fill="#62322D"/>
<path d="M953.973 308.319C953.657 308.319 953.389 308.028 953.369 307.623C953.168 303.435 952.986 299.032 952.852 293.781C952.709 288.088 952.737 282.369 952.795 276.852C952.795 273.727 952.852 270.538 952.852 267.35C952.852 261.77 952.508 257.139 951.014 252.812C949.864 249.509 948.265 246.46 946.216 243.778C941.744 237.831 935.222 233.833 927.868 232.58C910.889 229.645 901.552 246.713 901.465 246.865C901.283 247.194 900.92 247.308 900.632 247.042C900.335 246.827 900.288 246.346 900.489 245.979C900.575 245.802 902.95 241.387 907.556 237.35C911.798 233.605 918.789 229.455 928.03 231.036C935.634 232.352 942.424 236.503 947.097 242.677C949.223 245.499 950.918 248.7 952.124 252.154C953.705 256.709 954.049 261.517 954.088 267.312C954.088 270.501 954.088 273.701 954.021 276.827C953.963 282.33 953.934 288.062 954.088 293.718C954.231 298.968 954.404 303.372 954.605 307.522C954.605 307.926 954.375 308.294 954.059 308.331H953.973V308.319Z" fill="#62322D"/>
<path d="M979.475 333.763L979.398 333.814C979.245 333.903 979.092 334.042 978.91 334.181C975.52 336.749 967.131 342.798 961.375 342.975C955.965 343.152 947.892 336.977 943.965 333.991C943.774 333.852 943.621 333.712 943.429 333.574C943.238 333.435 943.084 333.295 942.941 333.207C943.582 332.979 944.463 332.663 945.45 332.245C948.687 330.866 953.302 328.715 956.348 326.146C956.913 325.691 957.688 325.729 958.177 326.235L959.594 327.563C960.351 328.297 961.423 328.348 962.189 327.653L964.095 326.007C964.622 325.551 965.359 325.551 965.886 326.007C968.289 328.121 973.7 330.904 977.55 332.84C978.278 333.207 978.929 333.485 979.503 333.751L979.475 333.763Z" fill="#62322D"/>
<path d="M968.941 308.584H968.912C968.586 308.546 968.328 308.179 968.328 307.774C968.548 303.624 968.72 299.221 968.874 293.97C969.027 288.315 968.998 282.596 968.941 277.079C968.874 273.954 968.874 270.765 968.874 267.565C968.902 261.769 969.266 256.949 970.933 252.406C972.206 248.952 973.987 245.764 976.228 242.929C981.17 236.768 988.323 232.617 996.348 231.289C1006.11 229.708 1013.46 233.858 1017.94 237.603C1022.8 241.639 1025.32 246.043 1025.4 246.232C1025.62 246.599 1025.56 247.08 1025.25 247.295C1024.95 247.548 1024.56 247.446 1024.38 247.118C1024.29 246.966 1014.45 229.898 996.54 232.833C988.783 234.086 981.907 238.084 977.176 244.031C975.031 246.713 973.336 249.762 972.11 253.064C970.54 257.392 970.176 262.023 970.176 267.602C970.176 270.791 970.233 273.992 970.233 277.105C970.3 282.608 970.329 288.34 970.176 294.034C970.023 299.284 969.831 303.688 969.63 307.875C969.611 308.28 969.324 308.572 968.998 308.572H968.941V308.584Z" fill="#62322D"/>
<path d="M931.641 279.547C930.578 277.724 929.381 275.953 928.069 274.308L929.151 273.435C930.501 275.143 931.746 276.966 932.838 278.85L931.641 279.547Z" fill="#62322D"/>
<path d="M924.296 288.39C923.539 284.126 922.438 279.9 921.04 275.814L922.352 275.358C923.778 279.521 924.908 283.822 925.675 288.15L924.315 288.39H924.296Z" fill="#62322D"/>
<path d="M903.572 281.405L902.346 280.747C903.735 278.116 905.047 275.281 906.263 272.334L907.546 272.865C906.321 275.863 904.98 278.735 903.572 281.405Z" fill="#62322D"/>
<path d="M911.004 291.603L909.663 291.236C911.08 286.087 912.066 280.76 912.603 275.395L913.991 275.535C913.445 280.975 912.45 286.391 911.023 291.616L911.004 291.603Z" fill="#62322D"/>
<path d="M918.272 277.015C913.886 277.015 909.663 275.206 905.555 273.447L904.176 272.865C902.825 272.295 901.513 271.777 900.134 271.625C898.679 271.473 897.338 271.815 896.467 272.562L895.576 271.499C896.744 270.511 898.468 270.044 900.288 270.246C901.848 270.411 903.285 270.967 904.721 271.587L906.11 272.181C910.774 274.168 915.6 276.244 920.427 275.458C925.598 274.637 928.404 273.611 933.824 269.537L934.657 270.651C928.921 274.953 925.828 276.002 920.647 276.825C919.852 276.951 919.057 277.015 918.272 277.015Z" fill="#62322D"/>
<path d="M989.645 279.547L988.448 278.85C989.53 276.966 990.775 275.143 992.135 273.435L993.226 274.308C991.914 275.966 990.708 277.724 989.645 279.547Z" fill="#62322D"/>
<path d="M996.999 288.39L995.63 288.15C996.406 283.822 997.517 279.521 998.953 275.358L1000.27 275.814C998.857 279.9 997.766 284.138 997.009 288.39H996.999Z" fill="#62322D"/>
<path d="M1017.71 281.405C1016.31 278.723 1014.97 275.851 1013.74 272.865L1015.02 272.334C1016.23 275.281 1017.54 278.116 1018.94 280.747L1017.71 281.405Z" fill="#62322D"/>
<path d="M1010.28 291.603C1008.85 286.377 1007.86 280.974 1007.31 275.522L1008.7 275.383C1009.24 280.747 1010.22 286.086 1011.64 291.223L1010.3 291.59L1010.28 291.603Z" fill="#62322D"/>
<path d="M1003.02 277.015C1002.24 277.015 1001.44 276.951 1000.65 276.825C995.467 276.002 992.364 274.953 986.628 270.651L987.461 269.537C992.882 273.611 995.687 274.623 1000.86 275.458C1005.7 276.23 1010.51 274.168 1015.18 272.181L1016.57 271.587C1018.02 270.979 1019.45 270.411 1021.02 270.246C1022.85 270.056 1024.56 270.511 1025.73 271.499L1024.84 272.562C1023.95 271.815 1022.63 271.473 1021.17 271.625C1019.79 271.764 1018.48 272.295 1017.13 272.865L1015.73 273.46C1011.63 275.218 1007.41 277.015 1003.03 277.015H1003.02Z" fill="#62322D"/>
<path d="M962.764 235.16C965.072 235.16 966.939 232.662 966.939 229.581C966.939 226.499 965.072 224.001 962.764 224.001C960.466 224.001 958.598 226.499 958.598 229.581C958.598 232.662 960.466 235.16 962.764 235.16Z" fill="#62322D"/>
<path d="M953.724 230.972C954.873 230.972 955.811 230.038 955.811 228.885C955.811 227.732 954.873 226.797 953.724 226.797C952.575 226.797 951.636 227.732 951.636 228.885C951.636 230.038 952.575 230.972 953.724 230.972Z" fill="#62322D"/>
<path d="M971.814 230.972C972.963 230.972 973.901 230.038 973.901 228.885C973.901 227.732 972.963 226.797 971.814 226.797C970.664 226.797 969.726 227.732 969.726 228.885C969.726 230.038 970.664 230.972 971.814 230.972Z" fill="#62322D"/>
<path d="M962.773 221.205C963.923 221.205 964.852 220.271 964.852 219.118C964.852 217.965 963.923 217.03 962.773 217.03C961.615 217.03 960.686 217.965 960.686 219.118C960.686 220.271 961.615 221.205 962.773 221.205Z" fill="#62322D"/>
<path d="M962.773 243.512C963.923 243.512 964.852 242.577 964.852 241.424C964.852 240.271 963.923 239.336 962.773 239.336C961.615 239.336 960.686 240.271 960.686 241.424C960.686 242.577 961.615 243.512 962.773 243.512Z" fill="#62322D"/>
<path d="M962.802 310.811C962.477 310.811 962.161 310.798 961.835 310.761C957.526 310.331 953.475 308.724 950.018 307.256L950.554 305.977C953.925 307.407 957.851 308.977 961.959 309.382C966.24 309.799 970.569 306.826 972.752 305.003L973.633 306.079C971.44 307.901 967.226 310.811 962.783 310.811H962.802Z" fill="#62322D"/>
<path d="M981.151 369.949C980.576 369.797 980.011 369.632 979.417 369.532C973.949 368.634 968.337 369.19 962.917 369.734H962.726C962.333 369.785 962.026 369.595 961.835 369.418C961.5 369.101 961.27 368.646 961.27 368.229C961.203 363.029 959.814 357.854 957.267 353.247C952.584 344.809 944.674 339.001 935.567 337.344C926.278 335.635 916.127 338.368 909.021 344.428C908.609 344.796 907.977 344.91 907.46 344.745C907.183 344.644 906.809 344.416 906.694 343.884L906.359 342.189C905.229 336.762 903.994 330.613 899.617 326.703C894.848 322.413 886.612 321.78 881.661 325.336C881.058 325.766 880.522 325.387 880.311 325.21C879.89 324.817 879.641 324.122 879.966 323.564C882.849 318.605 884.228 312.798 883.941 306.8C883.481 297.551 878.932 289.225 871.807 284.215C870.955 283.633 870.064 283.076 869.126 282.596C868.925 282.457 868.695 282.343 868.465 282.229C866.215 281.103 863.859 280.28 861.455 279.761C856.702 278.686 851.747 278.787 847.084 280.04C845.112 280.559 843.179 281.305 841.333 282.229C840.449 282.684 839.59 283.178 838.743 283.709C838.237 284.038 837.795 283.936 837.516 283.797C837.011 283.545 836.657 283.001 836.619 282.431C836.619 282.329 836.607 282.241 836.582 282.14C836.543 281.494 836.48 280.875 836.392 280.242C836.291 279.357 836.152 278.484 835.974 277.598C835.318 274.017 834.218 270.512 832.752 267.21C831.867 265.261 830.869 263.351 829.744 261.554C824.778 253.482 817.473 247.105 809.005 243.992C794.951 238.843 778.736 242.196 768.689 252.306C767.931 253.064 767.223 253.862 766.566 254.697C765.96 255.456 765.391 256.24 764.86 257.05C760.664 263.44 758.73 271.398 759.35 279.091C759.451 280.508 759.64 281.925 759.931 283.304C760.538 286.239 761.524 289.099 762.939 291.743C766.794 298.968 773.581 304.256 781.062 305.863C788.809 307.547 796.911 304.51 801.182 298.348C803.596 294.856 804.468 289.694 803.292 285.759C803.116 285.189 802.913 284.633 802.635 284.139C802.13 283.101 801.473 282.203 800.663 281.457C800.474 281.28 800.272 281.115 800.045 280.95C799.438 280.482 798.756 280.09 798.01 279.787C795.216 278.661 791.729 279.078 789.34 280.836C789.201 280.938 789.088 281.039 788.961 281.153C788.923 281.166 788.91 281.191 788.898 281.217C788.064 281.938 787.432 282.836 787.065 283.81C786.939 284.139 786.838 284.481 786.787 284.848C786.724 285.354 786.522 287.024 787.558 287.821C788.076 288.213 789.062 288.239 789.643 287.859C790.098 287.581 790.287 287.113 790.174 286.594C790.061 286.075 790.54 285.936 790.591 285.936C790.742 285.885 791.072 285.873 791.198 286.278C791.627 287.732 790.642 288.77 789.656 289.213C788.493 289.769 787.483 289.681 786.635 288.96C785.409 287.922 784.765 285.606 785.17 283.773C785.17 283.671 785.207 283.583 785.22 283.494C785.789 281.419 787.305 279.635 789.327 278.484C790.287 277.952 791.362 277.535 792.5 277.307C795.52 276.699 797.922 277.319 799.716 278.281H799.729C800.5 278.699 801.157 279.18 801.7 279.647C802.155 280.027 802.56 280.445 802.939 280.887C803.116 281.077 803.28 281.28 803.444 281.494C804.089 282.305 804.62 283.203 805.049 284.177C805.998 286.252 806.465 288.58 806.376 290.934C806.098 297.867 801.485 304.118 794.345 307.281L792.93 307.901L794.408 308.268C798.363 309.242 801.889 310.761 804.936 312.721C804.177 313.152 803.419 313.607 802.686 314.088C798.566 312.089 794.041 310.773 789.163 310.368C787.735 310.216 786.269 310.089 784.74 310.089C776.613 310.026 769.144 312.354 762.661 317.024C756.216 321.654 751.046 328.348 748.089 335.851C742.679 349.591 744.588 365.736 753.043 377.996C757.846 384.968 764.797 390.079 772.645 392.395C781.454 395.026 791.261 393.951 799.527 389.472C800.007 389.232 800.5 389.384 800.765 389.612C800.916 389.738 801.271 390.092 801.093 390.661C799.691 395.608 800.563 401.315 803.494 406.325C807.842 413.739 816.499 419.32 826.053 420.926C834.559 422.344 842.686 420.37 848.31 415.511C848.651 415.232 849.169 415.132 849.599 415.271C849.915 415.372 850.104 415.6 850.168 415.941C851.432 422.217 857.713 427.278 863.371 429.493C867.795 431.238 872.564 432.137 877.151 432.137C878.511 432.137 879.842 432.073 881.154 431.909C890.405 430.77 898.458 425.051 902.49 417.08H902.615C901.427 419.598 900.508 422.23 899.924 424.975C894.954 430.214 888.097 433.668 880.599 434.426C874.039 435.084 867.22 433.896 861.369 431.074C856.853 428.884 851.179 424.52 848.777 418.813L848.524 418.193L847.994 418.586C844.682 421.053 840.626 422.685 836.253 423.305C827.811 424.52 817.877 422.014 810.358 416.751L809.612 416.245L809.524 417.13C809.055 421.711 807.362 426.089 804.658 429.796C799.197 437.286 790.414 442.12 780.556 443.068C775.653 443.55 770.42 442.815 765.024 440.892C762.054 439.842 759.21 438.501 756.569 436.932C754.395 435.642 752.474 434.11 750.389 432.403L750.023 432.112L749.694 432.44C746.99 435.072 743.577 437.198 739.634 438.754C731.963 441.778 723.167 441.88 715.483 439.045C713.397 438.273 711.438 437.286 709.619 436.11C709.606 435.642 709.606 435.173 709.581 434.731C709.568 434.263 709.568 433.794 709.53 433.326C709.542 433.338 709.568 433.338 709.581 433.364C721.132 441.499 738.674 440.108 749.138 429.809C749.568 429.379 750.275 429.379 750.743 429.821C755.002 433.782 761.157 437.045 768.057 439.02C771.166 439.905 774.288 440.348 777.384 440.348C783.186 440.348 788.809 438.792 793.827 435.768C801.7 430.998 806.502 423.318 806.995 414.701C806.995 414.613 807.008 414.525 807.034 414.46L807.084 414.144L806.881 413.955C800.614 408.198 797.643 400.872 798.49 393.306L798.616 392.37L797.757 392.761C796.342 393.433 794.888 394.002 793.46 394.47C783.476 397.696 772.367 396.355 762.952 390.775C755.28 386.207 749.327 379.16 745.776 370.417C738.788 353.222 742.579 332.827 755.255 319.668C760.904 313.81 767.855 309.798 775.425 308.053L777.018 307.686L775.514 307.04C771.709 305.446 768.197 302.991 765.328 299.967C761.284 295.678 758.453 290.2 757.163 284.089L757.1 283.773L756.785 283.684C756.013 283.481 755.242 283.292 754.509 283.152C750.705 282.355 747.116 282.292 743.805 282.95C740.683 283.532 737.764 284.746 735.097 286.619C728.298 291.351 724.81 299.55 725.77 308.495C725.808 308.786 725.707 309.026 725.441 309.204C725.1 309.432 724.582 309.482 724.229 309.305C719.641 306.914 714.624 305.94 709.606 306.231C708.961 306.268 708.342 306.319 707.71 306.382C707.723 305.737 707.76 305.117 707.748 304.497V304.358C708.367 304.295 708.987 304.232 709.619 304.219C714.13 303.979 718.629 304.687 722.863 306.446L723.622 306.762L723.583 305.952C723.457 302.309 724.001 298.905 725.176 295.843C727.388 290.099 731.785 285.557 737.107 282.811C742.844 279.85 749.643 278.989 755.887 281.014L756.658 281.267L756.557 280.457C756.506 280.001 756.469 279.547 756.455 279.091C755.735 269.652 758.516 260.239 764.139 253.077C771.116 244.233 782.566 239.071 794.282 238.729C799.792 238.539 805.352 239.425 810.534 241.462C813.403 242.588 816.133 244.043 818.686 245.789C824.664 249.838 829.668 255.405 833.296 261.896C833.814 262.807 834.294 263.768 834.749 264.717C834.761 264.73 834.761 264.756 834.761 264.781C835.229 265.717 835.646 266.679 836.025 267.653C837.302 270.803 838.25 274.105 838.856 277.51C838.958 278.117 839.059 278.724 839.147 279.343L839.248 280.065L839.906 279.736C841.902 278.711 844.05 277.901 846.262 277.345C849.22 276.573 852.303 276.219 855.45 276.307C857.561 276.358 859.636 276.624 861.647 277.054C864.223 277.61 866.694 278.459 869.011 279.559C869.049 279.571 869.078 279.597 869.116 279.61C869.595 279.85 870.084 280.09 870.543 280.356C870.629 280.406 870.716 280.457 870.792 280.508C871.108 280.685 871.415 280.85 871.731 281.039C871.932 281.166 872.143 281.292 872.344 281.457C872.439 281.494 872.526 281.545 872.602 281.608C876.921 284.405 880.464 288.226 882.839 292.806C887.283 301.384 887.867 311.684 884.381 320.338L883.989 321.313L884.984 321.059C890.165 319.769 896.39 320.933 900.45 324.02C905.641 327.93 907.432 334.42 908.705 340.203L908.887 340.962L909.529 340.507C913.493 337.685 917.908 335.774 922.61 334.8C933.039 332.662 943.554 335.192 951.512 341.746C958.771 347.731 963.396 356.575 964.152 366.001L964.2 366.533L964.737 366.482C969.601 366.001 975.261 365.584 980.758 366.622C980.844 367.722 980.949 368.811 981.122 369.911L981.151 369.949Z" fill="#62322D"/>
<path d="M724.773 349.123C723.054 342.202 716.432 337.419 709.67 338.267C708.937 338.355 708.242 338.52 707.547 338.722C707.622 339.292 707.71 339.848 707.774 340.404C708.684 340.101 709.619 339.874 710.63 339.823C713.992 339.633 717.366 340.911 719.642 343.227C723.849 347.503 724.469 354.17 721.221 360.206C718.529 365.204 713.499 368.772 707.395 369.999C707.345 369.999 707.294 370.012 707.243 370.024C707.192 370.822 707.142 371.606 707.104 372.403V372.694C710.871 371.999 714.421 370.48 717.429 368.152C723.484 363.483 726.441 355.828 724.773 349.109V349.123Z" fill="#62322D"/>
<path d="M1116.38 359.648C1116.48 359.648 1116.6 359.648 1116.71 359.636H1116.88C1117.21 359.636 1117.53 359.61 1117.85 359.636C1118.03 359.636 1118.21 359.673 1118.4 359.686C1109.11 356.877 1100.26 353.145 1094.54 345.263C1092.23 342.049 1090.7 336.684 1088.95 330.471C1084.53 314.769 1078.47 293.272 1052.67 295.145C1052.26 295.17 1051.96 295.525 1051.99 295.93C1052.01 296.335 1052.4 296.638 1052.76 296.6C1077.41 294.816 1083 314.808 1087.53 330.863C1089.32 337.215 1090.87 342.707 1093.36 346.122C1098.54 353.259 1106.05 357.105 1114.17 359.876C1114.87 359.75 1115.6 359.686 1116.38 359.661V359.648Z" fill="#62322D"/>
<path d="M1082.52 312.278L1082.13 312.176C1082.56 312.948 1082.93 313.732 1083.27 314.529L1083.62 314.618C1083.27 313.846 1082.91 313.049 1082.52 312.29V312.278ZM1082.52 312.278L1082.13 312.176C1082.56 312.948 1082.93 313.732 1083.27 314.529L1083.62 314.618C1083.27 313.846 1082.91 313.049 1082.52 312.29V312.278ZM1064.7 297.461C1062.07 296.664 1059.09 296.233 1055.77 296.233C1055.21 296.233 1054.61 296.247 1054.02 296.272H1053.86C1053.86 296.272 1053.9 296.284 1053.91 296.284H1054.01L1055.79 296.487H1056.07C1056.54 296.487 1056.98 296.5 1057.43 296.524C1057.48 296.524 1057.53 296.524 1057.58 296.538C1057.84 296.538 1058.1 296.55 1058.36 296.588C1059.38 296.651 1060.34 296.778 1061.29 296.93C1061.42 296.942 1061.56 296.968 1061.7 296.993C1061.85 297.031 1061.99 297.056 1062.13 297.082C1062.41 297.132 1062.67 297.208 1062.94 297.259H1063C1063.34 297.347 1063.66 297.41 1063.98 297.512C1064.03 297.512 1064.1 297.524 1064.15 297.549C1064.22 297.563 1064.28 297.587 1064.34 297.6C1064.38 297.613 1064.41 297.613 1064.45 297.638C1064.82 297.74 1065.19 297.866 1065.55 297.98C1065.96 298.119 1066.38 298.271 1066.77 298.435C1067.62 298.764 1068.42 299.144 1069.22 299.561C1069.43 299.688 1069.64 299.789 1069.83 299.928C1071.37 300.789 1072.76 301.814 1074.02 302.965C1074.22 303.155 1074.42 303.332 1074.61 303.522C1074.62 303.522 1074.65 303.534 1074.65 303.559C1074.66 303.585 1074.69 303.598 1074.7 303.61C1074.72 303.622 1074.76 303.661 1074.77 303.673C1074.82 303.724 1074.89 303.775 1074.94 303.85C1075.26 304.167 1075.56 304.471 1075.84 304.825C1075.97 304.926 1076.04 305.027 1076.16 305.154C1076.54 305.571 1076.91 306.015 1077.25 306.47C1077.49 306.786 1077.73 307.09 1077.96 307.419C1078.2 307.748 1078.42 308.076 1078.65 308.406L1079.03 308.506C1075.72 303.42 1071.19 299.359 1064.7 297.461ZM1118.48 359.421C1117.18 359.041 1115.89 358.623 1114.61 358.181C1107.05 355.6 1099.74 351.994 1094.75 345.111C1093.24 343.036 1092.09 340.05 1090.98 336.482C1090.38 334.584 1089.8 332.521 1089.19 330.345C1089.19 330.345 1089.18 330.333 1089.17 330.307C1088.08 326.334 1086.83 321.981 1085.21 317.718C1084.82 316.68 1084.4 315.655 1083.94 314.656C1083.6 313.885 1083.24 313.113 1082.87 312.353C1082.32 311.227 1081.73 310.139 1081.07 309.089C1078.34 304.547 1074.77 300.586 1069.9 297.993C1066.07 295.956 1061.44 294.74 1055.77 294.74C1055.25 294.74 1054.74 294.754 1054.21 294.779C1054.12 294.779 1054.03 294.779 1053.95 294.791C1053.86 294.791 1053.78 294.791 1053.7 294.804C1053.39 294.804 1053.06 294.817 1052.74 294.854H1052.68C1052.68 294.854 1052.64 294.854 1052.63 294.867C1052.54 294.867 1052.45 294.88 1052.37 294.931C1052.25 294.968 1052.15 295.032 1052.05 295.121C1052.01 295.512 1051.96 295.93 1051.91 296.335C1051.96 296.436 1052.04 296.524 1052.11 296.588H1052.12C1052.19 296.651 1052.27 296.715 1052.36 296.74C1052.5 296.803 1052.65 296.828 1052.82 296.803C1053.02 296.791 1053.23 296.765 1053.43 296.765C1053.52 296.765 1053.62 296.752 1053.69 296.752C1053.77 296.752 1053.86 296.752 1053.94 296.74C1054.56 296.728 1055.17 296.702 1055.77 296.702C1066.84 296.702 1073.66 301.51 1078.27 308.229C1078.99 309.304 1079.67 310.404 1080.3 311.569C1080.74 312.378 1081.15 313.213 1081.54 314.036C1082.01 315.036 1082.45 316.06 1082.87 317.098C1084.46 321.071 1085.71 325.234 1086.83 329.232C1086.98 329.751 1087.11 330.282 1087.28 330.8L1087.31 330.928C1087.77 332.521 1088.21 334.052 1088.65 335.52C1089.96 339.91 1091.29 343.631 1093.17 346.224C1097.94 352.829 1104.65 356.46 1110.66 358.813C1111.84 359.281 1112.99 359.699 1114.1 360.079H1114.17L1114.22 360.092C1114.89 359.965 1115.63 359.902 1116.4 359.864H1116.83L1116.98 359.851C1117.26 359.851 1117.55 359.839 1117.84 359.851C1117.93 359.851 1118.02 359.864 1118.12 359.889C1118.21 359.889 1118.29 359.902 1118.37 359.902L1120.68 360.053L1118.48 359.383V359.421ZM1116.36 359.383C1115.59 359.395 1114.86 359.484 1114.18 359.585C1113.31 359.294 1112.43 358.965 1111.52 358.636C1105.4 356.308 1098.46 352.69 1093.59 345.946C1091.8 343.504 1090.49 339.987 1089.25 335.798C1088.77 334.205 1088.3 332.509 1087.8 330.763L1087.76 330.7C1087.66 330.32 1087.54 329.928 1087.43 329.535C1086.3 325.525 1085.07 321.311 1083.47 317.275C1083.06 316.237 1082.63 315.213 1082.16 314.213C1081.8 313.378 1081.41 312.594 1080.98 311.797C1080.38 310.657 1079.72 309.532 1079.01 308.482C1075.71 303.396 1071.18 299.333 1064.69 297.436C1062.05 296.638 1059.08 296.208 1055.76 296.208C1055.2 296.208 1054.6 296.221 1054.01 296.247H1053.85C1053.85 296.247 1053.79 296.259 1053.73 296.259C1053.63 296.259 1053.55 296.259 1053.47 296.272C1053.23 296.272 1052.99 296.284 1052.75 296.31C1052.63 296.322 1052.51 296.272 1052.43 296.208C1052.32 296.107 1052.27 296.006 1052.25 295.879C1052.24 295.689 1052.33 295.5 1052.5 295.424H1052.51C1052.51 295.424 1052.61 295.373 1052.67 295.373H1052.76C1053.04 295.361 1053.32 295.335 1053.6 295.323C1053.69 295.323 1053.78 295.31 1053.85 295.31C1053.93 295.31 1054.03 295.31 1054.1 295.298C1059.73 295.095 1064.35 296.019 1068.22 297.815C1073.52 300.219 1077.36 304.192 1080.26 308.861C1080.93 309.936 1081.54 311.025 1082.1 312.15C1082.52 312.922 1082.9 313.707 1083.24 314.504C1083.69 315.504 1084.13 316.529 1084.51 317.541C1086.16 321.729 1087.39 326.044 1088.52 330.016C1088.57 330.193 1088.61 330.345 1088.66 330.523C1089.23 332.521 1089.76 334.445 1090.31 336.228C1091.49 339.999 1092.71 343.175 1094.29 345.389C1099.12 352.057 1106.07 355.727 1113.32 358.295C1114.38 358.674 1115.45 359.016 1116.5 359.345C1116.44 359.358 1116.37 359.358 1116.32 359.358L1116.36 359.383Z" fill="#62322D"/>
<path d="M1053.18 282.329C1053.18 302.08 1047.04 320.375 1036.61 335.394C1037.18 335.496 1037.76 335.622 1038.31 335.748C1048.67 320.578 1054.78 302.169 1054.78 282.329C1054.79 230.605 1013.54 188.523 962.812 188.511C912.564 188.497 871.616 229.783 870.831 280.836C871.357 281.114 871.894 281.393 872.401 281.696C872.727 231.137 913.158 190.117 962.812 190.13C1012.66 190.142 1053.2 231.504 1053.18 282.329Z" fill="#62322D"/>
<path d="M873.129 261.414C872.928 262.299 872.736 263.198 872.564 264.096C872.42 264.817 872.305 265.552 872.181 266.273C872.267 266.322 872.334 266.399 872.411 266.462C872.688 264.729 873.014 263.008 873.407 261.312C873.32 261.363 873.234 261.401 873.129 261.414ZM873.129 261.414C872.928 262.299 872.736 263.198 872.564 264.096C872.42 264.817 872.305 265.552 872.181 266.273C872.267 266.322 872.334 266.399 872.411 266.462C872.688 264.729 873.014 263.008 873.407 261.312C873.32 261.363 873.234 261.401 873.129 261.414ZM873.129 261.414C872.928 262.299 872.736 263.198 872.564 264.096C872.42 264.817 872.305 265.552 872.181 266.273C872.267 266.322 872.334 266.399 872.411 266.462C872.688 264.729 873.014 263.008 873.407 261.312C873.32 261.363 873.234 261.401 873.129 261.414ZM873.129 261.414C872.928 262.299 872.736 263.198 872.564 264.096C872.42 264.817 872.305 265.552 872.181 266.273C872.267 266.322 872.334 266.399 872.411 266.462C872.688 264.729 873.014 263.008 873.407 261.312C873.32 261.363 873.234 261.401 873.129 261.414ZM873.129 261.414C872.928 262.299 872.736 263.198 872.564 264.096C872.42 264.817 872.305 265.552 872.181 266.273C872.267 266.322 872.334 266.399 872.411 266.462C872.688 264.729 873.014 263.008 873.407 261.312C873.32 261.363 873.234 261.401 873.129 261.414ZM1053.47 296.297C1053.47 296.386 1053.46 296.474 1053.43 296.55C1053.43 296.638 1053.42 296.728 1053.4 296.803C1053.19 298.182 1052.95 299.549 1052.66 300.915C1052.74 300.915 1052.83 300.928 1052.91 300.954C1053.19 299.574 1053.43 298.182 1053.65 296.791C1053.66 296.702 1053.69 296.638 1053.69 296.55C1053.7 296.461 1053.73 296.36 1053.73 296.272C1053.64 296.272 1053.55 296.272 1053.47 296.284V296.297ZM1054.88 276.939C1054.79 275.332 1054.68 273.737 1054.5 272.169C1054.26 269.904 1053.94 267.677 1053.55 265.475C1053.31 264.108 1053.05 262.768 1052.74 261.426C1052.14 258.643 1051.39 255.91 1050.53 253.228C1038.5 215.549 1003.72 188.231 962.812 188.218H962.793C938.459 188.218 915.476 197.848 898.085 215.321C895.777 217.649 893.575 220.091 891.544 222.608C890.127 224.354 888.758 226.151 887.484 227.998C886.689 229.124 885.933 230.276 885.214 231.44C883.692 233.831 882.294 236.285 881.01 238.791C880.273 240.208 879.583 241.637 878.932 243.093H878.913C878.003 245.155 877.161 247.218 876.404 249.33C875.925 250.621 875.466 251.937 875.054 253.253C874.192 255.935 873.455 258.643 872.861 261.414C872.497 262.97 872.19 264.539 871.932 266.133C871.549 268.347 871.262 270.562 871.041 272.801C870.888 274.167 870.783 275.534 870.716 276.913C870.649 278.052 870.61 279.216 870.591 280.367C870.572 280.506 870.572 280.646 870.572 280.785V280.962L870.725 281.025C871.118 281.228 871.472 281.405 871.779 281.595C871.951 281.683 872.104 281.772 872.257 281.873L872.65 282.126V281.62C872.985 231.288 913.436 190.344 962.783 190.344H962.793C1012.5 190.357 1052.94 231.604 1052.92 282.304C1052.92 286.63 1052.63 290.907 1052.03 295.133C1051.97 295.525 1051.92 295.942 1051.87 296.347C1049.89 309.392 1045.16 321.843 1037.87 332.989C1037.4 333.736 1036.9 334.47 1036.39 335.216L1036.29 335.368L1036.16 335.545L1036.55 335.633C1036.66 335.647 1036.74 335.672 1036.85 335.684H1036.86C1037.32 335.773 1037.77 335.874 1038.23 335.975L1038.41 336.026L1038.51 335.874C1038.93 335.267 1039.32 334.66 1039.7 334.065C1042.72 329.447 1045.3 324.614 1047.44 319.578C1048.33 317.503 1049.14 315.39 1049.85 313.252C1050.31 311.936 1050.74 310.62 1051.13 309.278C1051.93 306.571 1052.6 303.813 1053.16 301.017C1053.45 299.612 1053.69 298.182 1053.9 296.765C1053.92 296.677 1053.94 296.614 1053.94 296.524C1053.98 296.436 1053.98 296.373 1053.98 296.284C1053.98 296.284 1053.99 296.272 1054 296.247C1054.05 295.93 1054.09 295.601 1054.12 295.298C1054.16 295.209 1054.16 295.121 1054.16 295.044C1054.2 294.956 1054.2 294.867 1054.2 294.791C1054.44 293.058 1054.63 291.312 1054.76 289.553C1054.85 288.186 1054.95 286.82 1054.97 285.441C1055 284.404 1055.01 283.366 1055.01 282.328C1055.01 280.519 1054.97 278.735 1054.87 276.939H1054.88ZM1054.24 289.579C1054.09 291.337 1053.92 293.083 1053.68 294.829C1053.68 294.918 1053.66 295.007 1053.64 295.082C1053.64 295.171 1053.63 295.259 1053.61 295.335C1053.57 295.614 1053.54 295.867 1053.47 296.145C1053.47 296.196 1053.47 296.233 1053.46 296.284C1053.46 296.373 1053.45 296.461 1053.42 296.537C1053.42 296.626 1053.41 296.714 1053.39 296.791C1053.18 298.17 1052.94 299.536 1052.64 300.903C1052.11 303.686 1051.43 306.431 1050.62 309.127C1050.24 310.443 1049.82 311.759 1049.38 313.049C1048.66 315.187 1047.84 317.3 1046.93 319.376C1044.81 324.373 1042.26 329.181 1039.23 333.774C1038.89 334.331 1038.52 334.875 1038.16 335.419C1037.8 335.33 1037.4 335.242 1037.03 335.179C1037.46 334.533 1037.89 333.9 1038.31 333.242C1041.37 328.599 1043.97 323.702 1046.1 318.616C1046.86 316.807 1047.57 314.972 1048.21 313.138C1048.8 311.455 1049.34 309.785 1049.78 308.089C1050.39 306.052 1050.91 303.989 1051.33 301.915C1051.37 301.902 1051.37 301.864 1051.37 301.852C1051.73 300.156 1052.04 298.461 1052.31 296.752C1052.32 296.664 1052.35 296.563 1052.35 296.461L1052.4 296.208C1052.44 295.956 1052.47 295.689 1052.49 295.437H1052.5C1052.51 295.348 1052.54 295.259 1052.54 295.158C1052.55 295.07 1052.58 294.981 1052.58 294.88C1053.15 290.755 1053.42 286.555 1053.42 282.316C1053.43 231.338 1012.78 189.864 962.783 189.838H962.773C913.254 189.838 872.688 230.782 872.114 281.202C871.989 281.139 871.874 281.063 871.75 281C871.52 280.874 871.281 280.76 871.08 280.658C871.099 279.481 871.147 278.305 871.223 277.128C871.281 275.623 871.396 274.143 871.549 272.65H871.558C871.75 270.562 872.028 268.499 872.392 266.45C872.669 264.717 873.004 262.996 873.397 261.3C873.962 258.706 874.661 256.15 875.456 253.645C875.906 252.19 876.404 250.735 876.921 249.318C877.668 247.344 878.434 245.409 879.306 243.511C880.014 241.941 880.761 240.385 881.556 238.841C882.782 236.476 884.113 234.16 885.549 231.895C886.344 230.63 887.168 229.39 888.039 228.163C889.227 226.417 890.51 224.721 891.851 223.077C893.919 220.496 896.131 218.04 898.478 215.675C915.753 198.302 938.603 188.75 962.812 188.75H962.821C1003.57 188.75 1038.2 216.003 1050.1 253.569C1050.93 256.112 1051.61 258.706 1052.23 261.35C1052.55 262.78 1052.83 264.235 1053.09 265.703C1053.46 267.791 1053.75 269.904 1053.98 272.042C1054.17 273.699 1054.31 275.395 1054.4 277.09C1054.49 278.824 1054.53 280.57 1054.53 282.316C1054.53 283.316 1054.53 284.302 1054.49 285.289C1054.45 286.719 1054.36 288.136 1054.26 289.553L1054.24 289.579Z" fill="#62322D"/>
<path d="M1102.82 412.992C1105.7 408.033 1107.08 402.238 1106.78 396.24C1106.35 387.309 1102.07 379.197 1095.34 374.162C1094.64 373.631 1093.92 373.125 1093.16 372.682C1092.55 372.315 1091.95 371.973 1091.32 371.657C1081.83 366.887 1070.42 367.456 1061.6 373.137C1061.09 373.466 1060.65 373.365 1060.38 373.201C1059.87 372.96 1059.51 372.403 1059.48 371.847C1058.2 354.702 1046.84 338.887 1031.88 333.408C1017.83 328.259 1001.61 331.599 991.56 341.721C981.629 351.729 979.168 368.683 985.814 381.146C989.664 388.371 996.454 393.647 1003.93 395.267C1011.68 396.949 1019.78 393.912 1024.04 387.751C1026.46 384.258 1027.33 379.097 1026.15 375.162C1025.3 372.315 1023.48 370.252 1020.87 369.203C1018.08 368.076 1014.59 368.494 1012.2 370.252C1010.84 371.252 1009.9 372.72 1009.65 374.264C1009.58 374.769 1009.39 376.439 1010.42 377.237C1010.93 377.629 1011.92 377.655 1012.5 377.274C1012.96 376.996 1013.14 376.515 1013.04 376.009C1012.93 375.49 1013.4 375.352 1013.45 375.339C1013.6 375.301 1013.93 375.276 1014.05 375.706C1014.49 377.16 1013.5 378.199 1012.51 378.641C1011.35 379.197 1010.34 379.097 1009.5 378.388C1008.2 377.3 1007.56 374.795 1008.08 372.922C1008.93 369.885 1011.79 367.443 1015.36 366.735C1019.69 365.849 1022.77 367.507 1024.56 369.063C1027.62 371.657 1029.41 375.971 1029.23 380.349C1028.96 387.283 1024.35 393.533 1017.21 396.696L1015.79 397.316L1017.27 397.684C1020.05 398.354 1022.59 399.328 1024.94 400.505C1024.24 401.124 1023.57 401.782 1022.94 402.454C1022.42 402.314 1021.95 402.124 1021.43 401.998C1017.32 400.403 1012.65 399.543 1007.63 399.505C999.499 399.442 992.029 401.77 985.546 406.438C979.101 411.069 973.93 417.763 970.98 425.266C965.57 439.007 967.475 455.151 975.931 467.412C980.729 474.384 987.682 479.495 995.534 481.81C1004.34 484.417 1014.15 483.366 1022.41 478.888C1022.89 478.635 1023.38 478.799 1023.65 479.014C1023.8 479.154 1024.16 479.495 1023.98 480.064C1022.58 485.024 1023.45 490.731 1026.38 495.741C1030.73 503.155 1039.38 508.735 1048.94 510.342C1057.45 511.759 1065.58 509.786 1071.2 504.927C1071.54 504.636 1072.06 504.534 1072.49 504.686C1072.81 504.788 1072.99 505.016 1073.05 505.357C1074.32 511.633 1080.6 516.681 1086.26 518.908C1090.68 520.654 1095.44 521.552 1100.04 521.552C1101.4 521.552 1102.73 521.489 1104.04 521.312C1115.14 519.958 1124.48 512.012 1127.3 501.536C1130.01 491.49 1127.18 478.445 1116.51 472.928C1110.9 470.018 1104.39 469.891 1099.49 472.561C1094.81 475.117 1091.6 480.343 1091.52 485.556C1091.47 488.68 1092.61 491.743 1094.59 493.755C1096.15 495.348 1098.18 496.197 1100.42 496.197H1100.52C1103.47 496.159 1106.19 494.159 1106.97 491.413C1107.4 489.933 1107.26 487.973 1105.58 487.39C1104.87 487.15 1104.05 487.201 1103.46 487.529C1102.99 487.782 1102.69 488.187 1102.56 488.694C1102.43 489.263 1101.95 489.174 1101.79 489.149C1101.52 489.098 1101.08 488.833 1101.23 488.301C1101.49 487.251 1102.2 486.429 1103.25 486.024C1104.57 485.517 1106.17 485.708 1107.3 486.505C1108.32 487.201 1108.91 488.2 1109.04 489.478C1109.25 491.363 1108.4 493.691 1106.94 495.248C1104.45 497.904 1101.56 498.183 1099.58 497.955C1096.14 497.538 1092.89 495.311 1091.05 492.135C1087.74 486.366 1089.79 479.331 1093.27 474.902C1097.33 469.765 1104 467.437 1111.13 468.665C1117.88 469.828 1123.9 474.079 1127.25 480.026C1130.32 485.517 1131.43 492.338 1130.37 499.233C1130.13 500.776 1129.75 502.333 1129.24 503.851L1129.11 504.18L1129.37 504.408C1133.9 508.482 1137.82 510.937 1142.06 512.341C1146.97 513.961 1152.15 514.454 1157.05 513.721C1168.61 512.037 1175.88 503.8 1179.96 497.183C1180.33 496.601 1181.1 496.386 1181.65 496.715L1182.35 497.132C1183.75 497.993 1185.21 498.879 1186.78 499.41L1187.49 499.663C1188.82 500.118 1190.18 500.574 1191.56 500.979C1194.48 501.814 1197.4 502.397 1200.25 502.763C1204.26 503.281 1208.25 503.345 1212.1 503.054C1212.1 503.953 1212.11 504.839 1212.11 505.737C1210.95 505.825 1209.79 505.914 1208.59 505.926C1198.91 506.027 1189.64 503.902 1181.85 499.688L1181.43 499.46L1181.17 499.853C1178.76 503.598 1176.02 506.799 1173.05 509.342C1166.53 514.897 1158.27 517.656 1149.79 517.098C1142.94 516.668 1133.81 513.809 1128.72 507.141L1128.2 506.47L1127.83 507.23C1123.35 516.428 1114.01 522.805 1103.46 523.855C1096.9 524.513 1090.08 523.336 1084.23 520.502C1079.71 518.326 1074.04 513.973 1071.64 508.267L1071.37 507.647L1070.84 508.039C1067.53 510.493 1063.48 512.139 1059.1 512.758C1050.66 513.973 1040.72 511.468 1033.21 506.204L1032.46 505.686L1032.38 506.584C1031.9 511.151 1030.21 515.542 1027.51 519.237C1022.05 526.727 1013.26 531.573 1003.41 532.534C998.503 533.015 993.274 532.282 987.873 530.359C985.383 529.473 983.008 528.359 980.748 527.106C980.49 526.854 980.212 526.587 979.953 526.347C980.135 525.626 977.243 524.045 977.397 523.286C980.518 525.07 987.117 527.398 990.89 528.473C994.002 529.359 997.124 529.789 1000.22 529.789C1006.02 529.789 1011.64 528.245 1016.66 525.222C1024.53 520.452 1029.34 512.772 1029.83 504.155C1029.83 504.067 1029.85 503.978 1029.87 503.902L1029.92 503.611L1029.72 503.409C1023.45 497.664 1020.48 490.338 1021.32 482.772L1021.45 481.836L1020.6 482.228C1019.18 482.898 1017.72 483.468 1016.3 483.936C1006.31 487.162 995.199 485.821 985.785 480.216C978.115 475.649 972.168 468.614 968.615 459.871C961.624 442.676 965.417 422.28 978.096 409.121C983.736 403.263 990.689 399.24 998.263 397.506L999.853 397.139L998.35 396.494C994.548 394.9 991.033 392.445 988.16 389.421C984.119 385.132 981.285 379.641 980.001 373.543L979.934 373.226L979.618 373.137C971.306 370.86 963.999 371.847 957.937 376.06C951.138 380.792 947.643 388.991 948.61 397.936C948.648 398.228 948.543 398.468 948.275 398.645C947.94 398.873 947.422 398.923 947.068 398.733C934.523 392.256 918.78 396.026 908.772 407.906C900 418.332 897.443 432.819 902.452 443.941C907.546 455.303 918.961 461.655 930.195 459.39C936.285 458.162 941.322 454.608 944.004 449.61C947.269 443.561 946.647 436.907 942.443 432.617C940.164 430.302 936.812 429.023 933.441 429.214C930.386 429.391 927.724 430.719 925.943 432.958C924.956 434.198 923.999 436.249 924.238 438.26C924.382 439.449 924.937 440.475 925.856 441.182C926.757 441.904 928.26 442.41 929.524 441.929C930.52 441.563 930.74 440.892 930.788 440.512C930.846 439.867 930.511 439.184 929.888 438.766C929.179 438.286 928.279 438.247 927.484 438.677C927.389 438.74 927.303 438.691 927.245 438.627C927.149 438.5 927.235 438.424 927.264 438.387C928.452 437.159 929.888 437.298 930.836 437.856C931.928 438.5 932.809 439.892 932.301 441.626C931.985 442.714 931.258 443.473 930.137 443.852C928.461 444.435 926.048 444.042 924.516 442.954C921.461 440.765 921.557 436.54 923.242 433.503C924.975 430.39 928.509 428.151 932.483 427.658C939.225 426.809 945.862 431.579 947.566 438.513C949.223 445.219 946.283 452.874 940.231 457.543C934.743 461.781 927.484 463.451 920.321 462.085C914.518 460.997 909.04 457.631 904.855 452.596L904.712 452.443H904.52C903.687 452.304 902.921 452.064 902.069 451.785C901.035 451.457 899.962 451.115 898.774 451.039C896.639 450.901 894.532 451.191 892.33 451.899C889.083 452.95 885.875 454.999 882.763 457.948C881.93 458.745 881.154 459.592 880.407 460.453C879.765 459.795 879.124 459.175 878.444 458.555C880.752 455.873 883.443 453.355 886.651 451.482C889.581 449.774 892.77 448.749 896.122 448.42C897.798 448.243 899.531 448.294 900.987 448.547L902.059 448.736L901.542 447.762C894.791 435.577 896.869 419.206 906.675 407.059C916.405 394.975 932.455 390.383 945.67 395.861L946.436 396.191L946.398 395.356C946.264 391.711 946.81 388.32 947.987 385.258C952.575 373.315 966.652 366.52 978.699 370.429L979.465 370.67L979.369 369.873C978.278 359.966 981.045 349.995 986.954 342.493C997.191 329.473 1017.13 324.488 1033.34 330.878C1048.37 336.786 1059.58 351.653 1061.96 368.747L1062.06 369.468L1062.71 369.139C1067.41 366.748 1072.75 365.559 1078.24 365.722C1084.23 365.9 1089.86 367.596 1094.65 370.531C1095.42 370.999 1096.17 371.48 1096.88 372.036C1100.54 374.694 1103.56 378.16 1105.66 382.234C1110.11 390.813 1110.69 401.087 1107.2 409.766L1106.81 410.715L1107.81 410.475C1112.99 409.185 1119.21 410.348 1123.27 413.436C1128.46 417.345 1130.25 423.823 1131.53 429.593L1131.71 430.365L1132.35 429.909C1136.32 427.088 1140.73 425.177 1145.44 424.203C1155.87 422.065 1166.39 424.583 1174.34 431.137C1181.6 437.134 1186.23 445.966 1186.98 455.404L1187.03 455.936L1187.57 455.885C1192.54 455.379 1198.33 454.948 1203.93 456.075C1207.3 456.771 1210.49 458.099 1213.42 460.048C1213.23 461.225 1213.1 462.414 1212.96 463.59C1209.71 461.123 1206.12 459.529 1202.21 458.883C1196.74 457.973 1191.13 458.542 1185.71 459.074H1185.52C1185.13 459.137 1184.83 458.934 1184.64 458.783C1184.29 458.466 1184.06 458.011 1184.06 457.568C1184.01 452.38 1182.62 447.193 1180.06 442.6C1175.39 434.161 1167.48 428.353 1158.36 426.695C1149.07 424.988 1138.92 427.721 1131.82 433.781C1131.4 434.148 1130.77 434.262 1130.25 434.098C1129.98 433.996 1129.61 433.768 1129.5 433.237L1129.15 431.542C1128.03 426.114 1126.79 419.964 1122.42 416.043C1117.64 411.753 1109.42 411.133 1104.46 414.676C1103.85 415.131 1103.33 414.739 1103.11 414.55C1102.69 414.169 1102.43 413.474 1102.77 412.904L1102.82 412.992Z" fill="#62322D"/>
<path d="M1212.23 304.041C1211.19 303.383 1210.19 302.687 1209.22 301.915C1208.16 301.08 1207.16 300.169 1206.23 299.183C1202.19 294.894 1199.35 289.415 1198.07 283.303L1198 282.987L1197.69 282.898C1197.41 282.835 1197.12 282.747 1196.85 282.696C1191.27 281.291 1186.15 281.38 1181.57 282.987C1179.61 283.645 1177.76 284.594 1176 285.821C1169.2 290.554 1165.71 298.752 1166.7 307.697C1166.74 307.988 1166.61 308.229 1166.37 308.406C1166.03 308.634 1165.48 308.685 1165.16 308.507C1163.87 307.837 1162.53 307.28 1161.16 306.825C1156.01 305.079 1150.48 304.902 1145.14 306.154C1138.35 307.761 1131.88 311.683 1126.84 317.668C1125.81 318.895 1124.86 320.173 1124 321.502C1123.52 322.273 1123.05 323.058 1122.62 323.855C1122.55 323.982 1122.48 324.082 1122.43 324.196C1121.98 324.994 1121.58 325.816 1121.21 326.638C1118.9 331.826 1117.8 337.406 1118.02 342.796C1118.07 344.264 1118.22 345.718 1118.5 347.148C1118.91 349.413 1119.58 351.602 1120.52 353.702C1125.62 365.077 1137.04 371.417 1148.26 369.152C1154.36 367.924 1159.39 364.368 1162.08 359.37C1165.34 353.335 1164.72 346.667 1160.52 342.392C1158.24 340.076 1154.87 338.798 1151.51 338.987C1148.45 339.139 1145.79 340.468 1144.01 342.72C1143.03 343.96 1142.07 346.009 1142.31 348.021C1142.45 349.211 1143.02 350.236 1143.93 350.957C1144.84 351.665 1146.33 352.172 1147.59 351.678C1148.59 351.311 1148.82 350.641 1148.86 350.274C1148.94 349.616 1148.58 348.946 1147.96 348.515C1147.25 348.046 1146.35 348.009 1145.57 348.427C1145.44 348.49 1145.36 348.439 1145.31 348.376C1145.23 348.249 1145.31 348.174 1145.32 348.148C1146.54 346.908 1147.97 347.048 1148.91 347.591C1150.01 348.237 1150.89 349.653 1150.38 351.362C1150.06 352.463 1149.34 353.209 1148.21 353.588C1146.53 354.17 1144.12 353.791 1142.6 352.69C1139.53 350.502 1139.63 346.276 1141.32 343.251C1143.05 340.127 1146.57 337.874 1150.53 337.394C1157.29 336.546 1163.92 341.316 1165.63 348.249C1167.3 354.955 1164.35 362.61 1158.28 367.279C1152.79 371.531 1145.54 373.187 1138.38 371.821C1132.59 370.733 1127.1 367.368 1122.91 362.344L1122.78 362.193L1122.58 362.154C1121.78 362.028 1120.97 361.788 1120.14 361.535C1119.1 361.193 1118.02 360.864 1116.84 360.775C1114.68 360.649 1112.58 360.928 1110.4 361.635C1107.15 362.686 1103.93 364.735 1100.83 367.684C1099.41 369.05 1098.1 370.505 1096.9 372.036C1096.34 372.707 1095.81 373.403 1095.31 374.111C1094.61 373.58 1093.89 373.073 1093.13 372.631C1093.64 371.935 1094.13 371.252 1094.67 370.543C1097.33 367.064 1100.61 363.61 1104.72 361.231C1106.6 360.156 1108.55 359.333 1110.61 358.814C1110.76 358.763 1110.93 358.726 1111.08 358.713C1111.22 358.663 1111.36 358.624 1111.5 358.612C1112.1 358.472 1112.73 358.372 1113.34 358.283C1113.54 358.245 1113.76 358.232 1113.96 358.219H1113.97C1114.04 358.207 1114.12 358.182 1114.17 358.182C1114.32 358.169 1114.44 358.169 1114.57 358.144C1116.14 358.017 1117.72 358.081 1119.04 358.295L1120.13 358.486L1119.6 357.537C1117.67 354.006 1116.44 350.16 1115.93 346.149C1115.74 344.72 1115.66 343.239 1115.66 341.771C1115.66 336.52 1116.82 331.143 1119.06 326.082C1119.42 325.272 1119.81 324.437 1120.24 323.64C1120.3 323.501 1120.38 323.361 1120.47 323.222C1120.89 322.426 1121.35 321.628 1121.82 320.856C1122.71 319.477 1123.66 318.123 1124.73 316.807C1128.92 311.607 1134.29 307.786 1140.11 305.585C1143.05 304.446 1146.09 303.737 1149.14 303.459C1154.09 303.004 1159.08 303.687 1163.74 305.623L1164.49 305.939V305.129C1164.33 301.485 1164.87 298.082 1166.05 295.02C1167.97 289.971 1171.62 285.847 1176.09 283.063C1178.99 281.228 1182.27 279.989 1185.63 279.432C1188.56 278.951 1191.57 278.963 1194.51 279.609C1195.26 279.761 1196.01 279.951 1196.75 280.191L1197.53 280.444L1197.44 279.647C1196.34 269.74 1199.1 259.757 1204.99 252.254C1206.26 250.659 1207.65 249.217 1209.18 247.901C1209.57 247.522 1209.98 247.18 1210.41 246.852C1210.31 248.028 1210.25 249.217 1210.26 250.432C1210.26 250.559 1210.28 250.673 1210.28 250.799C1210.03 251.027 1209.79 251.229 1209.57 251.457C1209.43 251.596 1209.29 251.735 1209.18 251.875C1202.28 259.099 1199.13 269.753 1200.36 279.723C1200.48 280.697 1200.64 281.646 1200.84 282.595C1201.41 285.48 1202.43 288.276 1203.81 290.895C1205.23 293.552 1207.05 295.943 1209.18 297.968C1210.13 298.904 1211.15 299.752 1212.2 300.524C1212.14 301.688 1212.11 302.852 1212.19 304.029L1212.23 304.041Z" fill="#62322D"/>
<path d="M1186.79 342.885C1184.57 354.639 1187.11 367.191 1194 377.173C1197.88 382.804 1203.2 387.22 1209.23 389.927C1210.51 390.497 1211.82 391.002 1213.15 391.407C1213 392.205 1212.87 393.002 1212.73 393.798C1211.56 393.458 1210.38 393.052 1209.23 392.584C1207.39 391.863 1205.61 390.99 1203.9 389.978C1196.21 385.411 1190.27 378.362 1186.72 369.62C1183.15 360.852 1182.39 351.286 1184.18 342.239C1184.38 341.202 1184.61 340.152 1184.9 339.127C1186.9 331.586 1190.71 324.551 1196.17 318.87C1199.99 314.91 1204.42 311.823 1209.23 309.697C1210.37 309.179 1211.54 308.71 1212.73 308.318C1212.87 309.128 1213.06 309.937 1213.28 310.76C1213.32 310.912 1213.35 311.051 1213.42 311.216C1213.38 311.228 1213.32 311.253 1213.28 311.253C1211.91 311.721 1210.55 312.279 1209.23 312.911C1207.3 313.821 1205.41 314.935 1203.63 316.226C1197.18 320.856 1191.99 327.55 1189.04 335.053C1188.42 336.647 1187.89 338.254 1187.48 339.899C1187.2 340.899 1186.98 341.898 1186.81 342.911L1186.79 342.885Z" fill="#62322D"/>
<path fill-rule="evenodd" clip-rule="evenodd" d="M709.624 338.218C709.998 337.695 710.725 337.559 711.265 337.919C711.816 338.286 711.965 339.032 711.598 339.583C711.231 340.133 710.597 340.51 709.778 340.682C708.686 340.912 707.141 340.72 706.319 340.903C696.624 343.057 688.72 353.042 686.949 362.251C685.362 370.501 689.78 378.75 695.258 384.626C699.095 388.741 703.676 391.713 708.801 393.991C709.406 394.26 709.679 394.97 709.41 395.575C709.141 396.18 708.431 396.453 707.826 396.184C702.403 393.774 697.563 390.617 693.503 386.262C687.527 379.853 682.861 370.798 684.592 361.798C686.525 351.747 695.217 340.911 705.799 338.56C706.438 338.418 707.479 338.465 708.455 338.422C708.747 338.409 709.031 338.387 709.285 338.334C709.404 338.309 709.585 338.235 709.624 338.218Z" fill="#62322D"/>
<path fill-rule="evenodd" clip-rule="evenodd" d="M721.342 305.834C704.446 300.714 689.216 307.087 677.377 318.569C665.687 329.905 657.326 346.23 653.979 361.136C649.674 380.307 651.421 401.687 658.38 419.999C658.615 420.618 659.309 420.929 659.928 420.694C660.547 420.458 660.859 419.765 660.623 419.146C653.828 401.262 652.116 380.384 656.321 361.662C659.573 347.177 667.688 331.308 679.048 320.292C690.257 309.42 704.649 303.283 720.646 308.131C721.28 308.323 721.95 307.964 722.142 307.33C722.334 306.696 721.976 306.026 721.342 305.834Z" fill="url(#paint0_linear_430_57459)"/>
<defs>
<linearGradient id="paint0_linear_430_57459" x1="1193.36" y1="683.01" x2="1193.2" y2="683.95" gradientUnits="userSpaceOnUse">
<stop stop-color="#62322D"/>
<stop offset="1" stop-color="#33100C"/>
</linearGradient>
</defs>
</svg>
