<svg width="24" height="24" viewBox="0 0 24 24" fill="none" xmlns="http://www.w3.org/2000/svg">
<path d="M19.5679 3C19.0618 3 18.493 3.11723 17.8278 3.35699C16.7947 3.72921 4.64423 8.88818 3.26191 9.475C2.47159 9.81096 1 10.4359 1 11.9263C1 12.9142 1.57888 13.6207 2.71848 14.0277C3.3312 14.246 4.78644 14.6871 5.63078 14.9195C5.98894 15.0179 6.36956 15.0684 6.76102 15.0684C7.52692 15.0684 8.29769 14.8775 8.90153 14.5408C8.89635 14.6651 8.89973 14.7908 8.91453 14.9166C9.00555 15.6936 9.48468 16.4244 10.1951 16.8721C10.6598 17.1652 14.4556 19.7085 15.0224 20.1125C15.8187 20.6816 16.6989 20.9826 17.5662 20.9826C19.2238 20.9826 19.7799 19.2711 20.0478 18.4489C20.4363 17.2553 21.891 7.54877 22.0553 5.83715C22.1671 4.66425 21.6782 3.69841 20.7473 3.25293C20.3988 3.08495 20.0008 3 19.5679 3ZM19.5679 4.48C19.7714 4.48 19.9531 4.51366 20.107 4.5884C20.4571 4.75638 20.6351 5.13085 20.5811 5.69695C20.402 7.56397 18.9508 17.0406 18.6415 17.9908C18.3766 18.8033 18.0975 19.5026 17.5662 19.5026C17.0349 19.5026 16.4544 19.3163 15.8824 18.9071C15.3104 18.4986 11.5118 15.9513 10.9842 15.619C10.5217 15.3275 10.0322 14.6007 10.7212 13.8977C11.2888 13.319 15.5941 9.14036 15.9619 8.77258C16.2357 8.49804 16.1076 8.16699 15.839 8.16699C15.7465 8.16699 15.6358 8.20598 15.5211 8.29996C15.0711 8.66774 8.79863 12.865 8.25547 13.2025C7.89583 13.4259 7.33896 13.5869 6.76102 13.5869C6.5146 13.5869 6.26511 13.5574 6.02535 13.4915C5.19063 13.2614 3.77803 12.8328 3.21711 12.633C2.67765 12.4406 2.48145 12.2563 2.48145 11.9263C2.48145 11.4571 3.14367 11.1332 3.84149 10.8365C4.57853 10.5235 17.3318 5.10773 18.3293 4.74883C18.7911 4.58159 19.2135 4.48 19.5679 4.48Z" fill="white"/>
</svg>
